<svg width="690" height="130" viewBox="0 0 690 130" fill="none" xmlns="http://www.w3.org/2000/svg">
<path d="M317.382 128.799L318.446 129.012L318.02 129.649C322.912 130.499 337.375 129.862 338.438 127.099C332.27 126.674 322.912 127.524 317.382 128.799Z" fill="white"/>
<path d="M64.9297 107.758C58.9747 109.246 63.6537 112.646 64.2917 115.409C65.9932 116.259 67.9073 117.109 70.8848 117.322C74.075 113.709 69.6087 109.033 64.9297 107.758Z" fill="white"/>
<path d="M378.422 115.622C376.933 115.622 375.87 115.622 375.87 116.259C376.933 116.259 379.06 116.684 378.422 115.622Z" fill="white"/>
<path d="M326.527 108.82C325.039 108.82 323.975 108.82 323.975 109.458C324.613 110.096 326.74 109.883 326.527 108.82Z" fill="white"/>
<path d="M440.525 108.82C440.95 108.82 441.376 108.82 441.801 108.82C441.801 108.608 441.801 108.395 441.801 108.183C441.376 108.183 440.95 108.183 440.525 108.183C440.525 108.395 440.525 108.608 440.525 108.82Z" fill="white"/>
<path d="M356.09 105.632C352.9 105.845 351.624 107.12 350.135 108.183C353.751 109.033 358.217 107.758 356.09 105.632Z" fill="white"/>
<path d="M334.397 107.758C332.695 107.758 331.207 107.758 331.207 108.395C332.27 108.183 335.035 109.033 334.397 107.758Z" fill="white"/>
<path d="M310.151 107.758C311.002 108.395 313.554 107.97 314.83 108.395C315.894 106.907 310.151 106.27 310.151 107.758Z" fill="white"/>
<path d="M373.105 104.144C372.892 105.42 375.019 105.207 375.657 106.057C374.168 107.545 370.34 105.207 367.788 106.482C368.426 108.608 374.168 108.395 377.571 107.97C377.996 105.845 382.037 105.845 382.888 103.932C379.272 102.869 376.508 103.719 373.105 104.144Z" fill="white"/>
<path d="M112.783 104.144C114.91 104.357 115.76 103.932 115.335 102.657C113.846 102.869 112.358 102.869 112.783 104.144Z" fill="white"/>
<path d="M384.802 103.294C385.653 103.507 386.504 103.719 387.993 103.719C388.843 102.444 385.015 102.232 384.802 103.294Z" fill="white"/>
<path d="M172.546 99.0436C167.867 98.8311 162.338 97.9809 159.36 99.4687C165.102 100.744 177.863 102.019 181.054 99.8938C179.352 98.406 175.524 99.2562 172.546 99.0436Z" fill="white"/>
<path d="M578.342 97.5558C578.342 98.6185 579.831 98.831 580.895 99.4686C581.32 97.9808 579.193 98.1934 578.342 97.5558Z" fill="white"/>
<path d="M307.599 95.0053C307.386 96.2806 304.621 96.068 302.282 96.068C300.793 97.1307 301.431 97.3433 301.644 99.0436C305.472 99.0436 305.897 97.1307 309.513 97.1307C309.087 96.2806 308.237 95.643 307.599 95.0053Z" fill="white"/>
<path d="M4.741 96.068C4.10296 96.9182 6.86771 97.7683 7.29308 96.7056C6.22967 96.7056 6.65514 95.6429 4.741 96.068Z" fill="white"/>
<path d="M16.4383 96.4931C15.3749 96.2805 14.7369 95.8555 13.8861 95.8555C13.2481 96.7056 16.013 97.3432 16.4383 96.4931Z" fill="white"/>
<path d="M49.1913 96.068C50.6801 95.8555 50.6801 96.7056 52.3815 96.4931C52.3815 96.068 52.5942 95.6429 53.0195 95.4304C52.1688 94.7927 48.7659 94.7928 49.1913 96.068Z" fill="white"/>
<path d="M38.1318 95.0053L39.1952 95.4304L38.7699 96.068C40.6841 96.2805 40.684 95.4304 42.5982 95.6429C42.8108 94.1551 39.4079 94.1552 38.1318 95.0053Z" fill="white"/>
<path d="M44.0868 79.915C43.2361 79.7024 40.6839 80.34 40.8966 79.4898C41.1093 79.0648 41.7473 78.8523 41.5346 78.0021C44.9375 78.2146 47.4896 78.0021 48.7657 76.9394C44.9374 76.3018 44.0867 74.1764 42.1726 72.6886C35.5795 70.5632 31.7512 73.9638 26.4341 74.1764C20.0537 74.3889 17.5016 72.6886 11.9718 72.6886C6.86749 72.9012 4.31529 72.476 0.912388 73.1137C-5.46805 68.2252 -18.4416 71.4133 -29.9264 70.9883C-32.0532 74.3889 -35.2434 76.9394 -43.7507 76.7269C-43.7507 78.4272 -41.8365 79.0648 -42.4745 80.9777C-46.0901 82.0404 -47.1536 80.34 -52.2579 80.5525C-53.534 81.4027 -55.0228 82.2529 -57.575 82.4654L-57.1496 83.1031L-58.213 83.3156C-58.213 83.7407 -58.6383 83.7407 -58.851 83.9532L-58.4256 84.5908L-59.489 84.8033C-59.489 85.441 -57.3622 85.0159 -56.9368 85.441C-54.81 84.3783 -48.2169 82.2529 -45.2393 83.9532C-45.2393 86.7162 -50.3438 86.5037 -51.1945 88.6291C-49.0677 89.4793 -46.9408 88.204 -43.9633 88.6291C-43.7506 88.8416 -43.3253 89.0541 -42.6873 89.0541C-42.2619 91.3921 -40.1351 93.73 -34.18 94.7927C-32.2659 95.2178 -29.501 94.7927 -26.9488 95.2178C-25.8854 95.4303 -25.46 96.0679 -25.0346 96.2805C-19.7176 97.5557 -15.464 95.4303 -13.3372 94.3676C-12.0611 95.0053 -10.9978 95.6429 -8.65827 95.8554C-6.95682 95.0053 -3.97926 95.0052 -0.789036 95.2178C2.1885 94.3676 3.25191 92.4548 7.71822 92.2422C11.1211 87.7789 17.0763 84.8033 28.1357 84.5908C29.8371 84.1657 30.2625 83.103 31.3259 82.4654C35.3669 81.8278 41.9599 82.4654 44.512 80.9777C49.191 80.7651 53.87 80.5526 56.2095 79.0648C51.7432 78.2146 48.5531 78.4272 44.0868 79.915Z" fill="white"/>
<path d="M329.08 93.5175C326.315 92.4548 323.976 94.1551 323.763 95.6429C326.315 96.7056 329.08 95.2178 329.08 93.5175Z" fill="white"/>
<path d="M28.9865 96.068C29.4118 96.068 29.8373 96.068 30.2626 96.068C30.2626 95.8555 30.2626 95.6429 30.2626 95.4303C29.8373 95.4303 29.4118 95.4303 28.9865 95.4303C28.9865 95.6429 28.9865 95.8555 28.9865 96.068Z" fill="white"/>
<path d="M152.129 95.4303C156.383 95.8554 153.618 94.3676 152.129 95.4303V95.4303Z" fill="white"/>
<path d="M30.9007 92.8799C29.412 91.6047 24.0949 92.4548 23.0315 93.5175C24.7329 93.9426 31.3261 95.2178 31.5387 93.0924L32.6022 92.8799C31.9641 92.8799 31.326 93.0924 30.688 93.305L30.9007 92.8799Z" fill="white"/>
<path d="M380.974 93.9426C385.228 94.3677 382.463 92.8799 380.974 93.9426V93.9426Z" fill="white"/>
<path d="M51.1054 91.3921C48.9786 91.3921 46.2137 91.1796 45.1503 91.8172L45.5756 92.4548L46.001 93.0924C46.639 93.73 47.2771 94.3676 49.1912 94.1551C49.8292 93.0924 51.1054 92.4548 51.1054 91.3921Z" fill="white"/>
<path d="M51.9561 92.2423C53.4448 92.2423 54.5083 92.2423 54.5083 91.6047C53.0195 91.3922 51.9561 91.6047 51.9561 92.2423Z" fill="white"/>
<path d="M66.2059 90.3295C65.5679 90.3295 65.1426 89.9044 64.9299 89.6919C63.0158 90.7546 57.2734 89.9044 57.0607 91.8173C60.6763 91.6047 65.9933 92.4549 66.2059 90.3295Z" fill="white"/>
<path d="M165.953 89.2668C163.401 89.2668 161.274 89.2667 159.998 89.9044L160.424 90.542L159.998 91.1796C162.338 92.0298 167.229 91.6047 165.953 89.2668Z" fill="white"/>
<path d="M560.477 84.1658C559.201 83.1031 559.201 81.8278 557.287 81.6153C558.776 81.6153 559.839 81.6153 559.839 80.9777L558.776 80.7652L559.201 80.1276C555.373 80.3401 553.246 79.7025 550.056 79.7025C548.993 80.9777 553.033 82.2529 551.97 83.7407C559.626 84.8034 561.115 89.0542 567.07 90.967C569.623 88.8416 563.455 86.2912 560.477 84.1658Z" fill="white"/>
<path d="M383.526 89.6918C382.463 89.0542 379.06 89.0542 379.485 90.3294C381.399 90.3294 383.526 90.542 383.526 89.6918Z" fill="white"/>
<path d="M224.228 88.2041C223.377 88.2041 222.527 88.2041 221.676 88.2041C222.952 89.0543 220.4 89.9044 222.952 90.1169C222.314 88.8417 224.015 88.8417 224.228 88.2041Z" fill="white"/>
<path d="M47.2772 89.6918C47.7026 88.2041 44.087 88.2041 44.725 89.6918C46.4265 89.6918 46.0011 90.3295 47.2772 89.6918Z" fill="white"/>
<path d="M643.422 85.866L642.359 86.0786C643.21 87.3538 646.187 87.3538 648.952 87.9914C653.206 88.8416 658.31 89.9043 663.415 89.0541C661.075 85.441 650.228 86.5037 642.997 85.441L643.422 85.866Z" fill="white"/>
<path d="M597.909 89.2667C599.398 89.2667 600.461 89.2667 600.461 88.6291C598.972 88.4166 598.122 88.6291 597.909 89.2667Z" fill="white"/>
<path d="M243.369 88.6291C242.306 88.6291 240.179 88.204 240.817 89.2667C242.093 89.2667 243.157 89.2667 243.369 88.6291Z" fill="white"/>
<path d="M561.966 82.4654C561.541 83.7407 563.242 83.9532 565.156 83.9532C565.156 82.8905 564.305 82.0404 561.966 82.4654Z" fill="white"/>
<path d="M577.704 82.4654C577.917 83.3155 580.894 82.678 582.383 82.8905C583.234 81.4027 577.279 80.9776 577.704 82.4654Z" fill="white"/>
<path d="M537.72 80.5526C537.507 81.4027 538.571 81.8278 540.272 81.6153C540.91 80.5526 539.422 80.5526 537.72 80.5526Z" fill="white"/>
<path d="M128.521 80.5525C127.883 80.5525 127.245 80.5525 126.607 80.5525C126.607 80.9776 126.607 81.1902 126.607 81.6152C127.033 81.6152 127.458 81.6152 127.883 81.6152C127.883 81.1902 128.734 81.1902 128.521 80.5525Z" fill="white"/>
<path d="M566.432 80.9777C567.921 80.9777 568.984 80.9776 568.984 80.34C568.133 79.7024 566.219 79.915 566.432 80.9777Z" fill="white"/>
<path d="M266.977 79.915C267.189 78.8523 266.126 78.4273 265.063 78.0022C264.85 78.6398 263.574 78.4272 262.511 78.4272C262.298 80.1276 265.275 78.6398 266.977 79.915Z" fill="white"/>
<path d="M260.383 79.915C260.383 79.49 260.596 79.0649 261.022 78.8523C260.384 78.8523 259.745 78.8523 259.107 78.8523C258.895 79.49 259.533 79.7025 260.383 79.915Z" fill="white"/>
<path d="M567.708 78.8523C566.645 79.0648 564.943 79.0648 564.518 79.4899C566.219 79.4899 567.708 79.4899 567.708 78.8523Z" fill="white"/>
<path d="M525.172 78.0022C523.471 78.0022 521.982 78.0021 521.982 78.6398C523.471 79.0648 524.959 79.2774 525.172 78.0022Z" fill="white"/>
<path d="M207.213 76.5143C207.213 77.3645 208.277 77.577 208.49 78.4272C211.042 78.6397 212.531 78.2146 213.169 77.3645C210.829 77.1519 209.978 76.3018 207.213 76.5143Z" fill="white"/>
<path d="M124.693 77.5771C123.63 77.5771 122.992 77.7896 122.779 78.2147C123.842 78.4273 124.268 78.2148 124.693 77.5771Z" fill="white"/>
<path d="M254.429 78.0021C254.854 78.0021 255.28 78.0021 255.705 78.0021C255.705 77.7895 255.705 77.577 255.705 77.3644C255.28 77.3644 254.854 77.3644 254.429 77.3644C254.429 77.577 254.429 77.7895 254.429 78.0021Z" fill="white"/>
<path d="M106.19 78.0021C107.466 77.7896 110.656 78.6397 110.018 77.3645C109.593 76.5143 105.339 76.7269 106.19 78.0021Z" fill="white"/>
<path d="M201.896 77.3645C202.322 77.3645 202.747 77.3645 203.173 77.3645C203.173 77.152 203.173 76.9394 203.173 76.7269C202.747 76.7269 202.322 76.7269 201.896 76.7269C201.896 76.9394 201.896 77.152 201.896 77.3645Z" fill="white"/>
<path d="M116.186 76.9395C117.037 77.152 117.887 77.3645 119.376 77.3645C120.439 76.3018 115.973 76.3018 116.186 76.9395Z" fill="white"/>
<path d="M232.097 76.3017C233.799 78.002 239.541 76.3018 239.966 74.814C236.138 74.6014 233.373 74.3889 232.097 76.3017Z" fill="white"/>
<path d="M221.676 75.8767C221.676 76.0892 221.676 76.3017 221.676 76.5143C222.314 76.5143 222.952 76.5143 223.59 76.5143C223.59 76.3017 223.59 76.0892 223.59 75.8767C222.952 75.8767 222.314 75.8767 221.676 75.8767Z" fill="white"/>
<path d="M131.286 76.3018C131.286 75.8767 132.137 75.8767 131.924 75.2391C131.499 75.2391 131.074 75.2391 130.648 75.2391C129.798 75.6641 129.798 76.0892 131.286 76.3018Z" fill="white"/>
<path d="M243.369 73.9638C243.582 74.814 244.007 75.4516 245.284 75.8767C245.496 75.0265 248.474 75.6641 247.836 74.3889C247.41 73.7513 244.433 73.5387 243.369 73.9638Z" fill="white"/>
<path d="M139.155 74.8141C138.092 73.9639 134.689 73.9639 134.477 75.4517C135.965 76.3018 138.73 75.6642 139.155 74.8141Z" fill="white"/>
<path d="M209.766 75.4517C211.467 75.2391 213.381 75.0266 214.445 74.389C212.531 74.6015 208.915 73.7513 209.766 75.4517Z" fill="white"/>
<path d="M150.853 75.4517C152.767 73.7513 147.875 73.1137 146.174 74.389L147.237 74.8141L146.812 75.4517C148.301 75.4517 149.577 75.4517 150.853 75.4517Z" fill="white"/>
<path d="M209.128 71.8384C209.128 72.2634 209.128 72.9011 209.128 73.3262C210.616 73.5387 211.68 73.3261 212.318 72.9011C212.743 71.8384 211.042 71.8384 209.128 71.8384Z" fill="white"/>
<path d="M120.652 71.626C119.802 71.626 118.951 71.626 118.1 71.626C118.1 71.8385 118.1 72.051 118.1 72.2635C118.951 72.2635 119.802 72.2635 120.652 72.2635C120.652 72.051 120.652 71.8385 120.652 71.626Z" fill="white"/>
<path d="M41.96 69.7131C40.684 69.7131 39.8332 69.9256 39.4078 70.3507C40.8966 70.5633 41.96 70.3507 41.96 69.7131Z" fill="white"/>
<path d="M130.436 69.288C132.137 69.5006 133.413 69.9256 134.477 68.8629C133.413 69.288 130.648 68.6504 130.436 69.288Z" fill="white"/>
<path d="M425.637 69.288C425.637 68.8629 425.849 68.4379 426.275 68.2253C424.786 68.4379 424.786 67.5877 423.085 67.8002C422.659 69.0755 423.51 69.5006 425.637 69.288Z" fill="white"/>
<path d="M154.043 68.6502C154.256 68.0126 153.405 67.8001 153.405 67.1625C152.129 67.1625 150.853 67.1625 149.577 67.1625C148.301 69.0753 152.342 69.5004 154.043 68.6502Z" fill="white"/>
<path d="M219.123 68.0127C219.974 66.7375 215.933 67.8002 217.209 68.4378C217.635 68.6504 218.911 68.0127 219.123 68.0127Z" fill="white"/>
<path d="M9.84511 68.2253C11.7592 68.2253 12.1846 67.3752 13.0353 66.7375C11.3339 65.8874 9.41975 66.9501 9.84511 68.2253Z" fill="white"/>
<path d="M-0.576009 65.6748C-0.78869 67.1626 0.0620351 68.0127 2.61421 67.8002C3.25225 67.1626 3.89022 66.3124 4.52826 65.6748L4.10288 65.2498L4.52826 64.8247C3.25218 65.4623 0.700079 65.2497 -0.576009 65.6748Z" fill="white"/>
<path d="M162.55 65.0371C161.487 65.0371 160.849 65.2497 160.636 65.6747C161.7 65.6747 162.976 65.8873 162.55 65.0371Z" fill="white"/>
<path d="M214.445 63.1244C213.594 62.9119 213.169 62.6993 211.892 62.6993C210.829 63.3369 211.254 64.6122 212.53 64.8247C211.892 63.762 215.083 64.6122 214.445 63.1244Z" fill="white"/>
<path d="M157.446 55.2604C159.998 56.5356 158.935 53.9852 157.446 55.2604V55.2604Z" fill="white"/>
<path d="M169.782 50.797C170.845 50.797 170.207 51.6472 171.696 51.4346C172.334 50.797 170.207 49.9468 169.782 50.797Z" fill="white"/>
<path d="M16.4384 49.0967C15.3749 49.0967 14.7369 49.3092 14.5242 49.7343C15.5876 49.7343 16.8637 49.9469 16.4384 49.0967Z" fill="white"/>
<path d="M168.505 48.459C168.505 48.8841 168.505 49.0966 168.505 49.5217C169.994 49.5217 171.057 49.5218 171.057 48.8841C170.207 48.6716 169.994 48.2465 168.505 48.459Z" fill="white"/>
<path d="M28.9866 46.1212C27.7105 46.1212 28.1358 45.0584 26.4343 45.4835C26.2217 46.5462 28.5612 47.3964 28.9866 46.1212Z" fill="white"/>
<path d="M192.326 55.6854C192.751 55.4729 191.9 55.4729 192.326 55.6854V55.6854Z" fill="white"/>
<path d="M-403.182 22.9543V36.982C-399.141 36.982 -394.675 36.982 -389.996 35.9193C-390.634 36.3443 -390.846 36.9819 -390.634 37.8321C-389.145 38.0446 -388.081 38.4697 -385.955 38.2572C-385.104 36.5569 -383.402 36.3443 -385.317 34.644C-384.253 34.2189 -380.638 33.1562 -380 34.644C-380.638 34.644 -381.276 34.644 -381.914 34.644C-382.339 36.1318 -379.149 36.3444 -380.638 37.1945C-383.402 38.6823 -375.959 39.9575 -375.959 42.2955C-378.298 43.7832 -383.403 43.7832 -385.104 45.4836L-384.041 45.9087L-384.466 46.5462C-379.361 46.1212 -373.619 44.2083 -368.727 45.9087C-364.261 44.846 -360.646 43.3582 -354.265 43.3582C-354.903 44.4208 -353.202 44.4208 -352.989 45.271C-350.65 44.8459 -345.758 45.0585 -345.12 46.7588C-347.034 46.7588 -349.586 46.5462 -349.799 47.3964L-348.735 47.8215L-349.161 48.4591C-348.097 49.3093 -343.418 48.2466 -342.568 49.0968C-343.418 50.372 -344.695 51.2221 -346.396 52.0723C-351.5 51.6472 -353.414 54.1977 -358.093 55.0478C-358.519 56.9607 -359.369 58.661 -364.048 58.2359C-364.048 59.0861 -364.049 59.9363 -363.41 60.3613C-360.433 59.7237 -359.369 60.1488 -356.817 59.7237C-358.519 62.4868 -367.877 61.4241 -370.642 59.7237C-372.981 59.9363 -377.66 59.0861 -377.235 60.7864C-375.533 60.7864 -374.044 60.999 -373.194 61.424C-375.321 62.2742 -376.384 63.762 -379.787 63.9745C-379.787 63.1244 -379.787 62.2742 -380.425 61.8491C-381.701 61.8491 -382.977 61.8491 -384.253 61.8491C-383.828 59.9363 -388.081 60.3613 -387.443 59.2986C-388.081 60.3613 -390.421 60.5739 -392.122 61.2115C-391.484 62.4867 -388.294 62.4868 -390.208 64.1871C-387.231 65.2498 -383.615 66.3125 -379.149 65.6748C-376.597 66.7375 -375.746 67.8003 -371.28 67.1626L-371.705 66.525L-370.642 66.7375C-368.302 65.6748 -365.963 67.1626 -362.772 67.8002C-359.795 68.4379 -358.306 67.3752 -358.944 69.288L-357.881 69.7131L-358.306 70.3507C-355.329 70.3507 -351.713 70.1382 -351.075 71.4134L-350.012 71.626L-350.437 72.2636C-341.292 72.2636 -332.784 75.6642 -324.915 74.1764L-325.978 73.7514L-322.15 73.5388C-319.385 73.5388 -316.833 73.7513 -314.281 73.1137L-314.706 73.7514C-312.792 73.9639 -310.878 74.389 -310.666 75.6642C-313.218 76.0893 -314.706 76.0893 -317.259 75.6642C-316.621 76.7269 -319.385 76.0893 -319.173 77.152L-318.109 77.3645C-318.747 77.3645 -319.173 77.3645 -319.811 77.5771C-320.236 77.7896 -320.449 78.2147 -320.661 78.6398L-321.087 78.0022C-323.639 78.6398 -323.639 80.7652 -326.404 81.1903C-329.381 81.1903 -333.635 79.915 -334.911 80.1276C-331.934 82.253 -339.377 83.9533 -343.418 84.3784C-343.631 85.2285 -343.418 85.8661 -342.78 86.2912C-343.844 86.7163 -345.545 86.7163 -345.971 87.3539L-345.545 87.9915L-346.609 88.2041C-333.848 89.0542 -320.449 90.542 -310.453 87.1414C-307.901 88.2041 -305.561 87.779 -303.222 87.5665C-303.434 88.6292 -301.733 88.6292 -301.946 89.6919C-305.136 91.8173 -312.154 89.9044 -316.408 91.8173L-315.344 92.2423L-315.77 92.88C-307.263 92.88 -300.67 92.8799 -291.524 93.305C-290.886 93.7301 -290.886 94.5802 -290.248 95.2179C-293.226 96.7056 -295.991 98.1934 -296.841 100.956L-295.778 101.169L-295.352 101.807C-292.162 101.169 -289.61 98.1935 -285.569 99.2562C-287.058 100.956 -291.099 101.382 -291.524 103.507C-286.845 102.444 -280.677 102.444 -278.338 100.319C-277.7 100.956 -276.211 100.744 -275.148 100.956C-275.148 99.6812 -273.234 99.4687 -273.872 97.9809L-274.935 97.7684L-274.51 97.1308C-276.637 96.7057 -275.36 98.406 -277.062 98.1935C-279.401 97.5558 -281.528 97.3433 -284.293 97.7684C-282.166 95.4304 -278.976 93.9427 -273.234 93.7301C-272.17 91.8173 -274.935 91.8172 -274.51 90.1169C-272.383 89.9044 -270.256 89.9044 -269.831 88.6292C-273.021 87.1414 -278.551 90.1169 -283.017 88.2041C-284.293 88.6291 -285.569 88.8417 -287.058 89.2668C-287.909 88.6291 -290.461 89.0542 -290.248 87.779C-289.823 86.5037 -287.909 86.0787 -286.42 85.2285C-276.424 85.6536 -270.256 82.678 -262.812 84.1658C-263.025 85.016 -262.812 85.6536 -262.174 86.0787C-256.644 85.6536 -253.667 83.7407 -248.35 83.1031C-247.712 84.3784 -246.01 84.8034 -244.309 85.6536C-242.82 85.441 -241.757 85.016 -239.63 85.2285C-238.779 82.8906 -235.376 82.0404 -229.847 82.253C-229.847 82.6781 -229.634 83.1031 -229.208 83.3157C-221.339 83.5282 -220.276 79.915 -213.47 79.2774C-213.47 78.4272 -213.045 77.7896 -212.194 77.3645C-207.302 77.3645 -197.306 79.0649 -192.627 76.7269C-184.333 78.2147 -170.083 76.0893 -161.789 77.3645C-159.662 77.7896 -156.897 77.3645 -153.281 77.7896C-153.494 78.8523 -151.58 78.8523 -151.367 79.7025C-152.856 80.3401 -152.856 81.8279 -152.643 83.3157C-150.516 83.3157 -147.114 82.0404 -145.412 82.8906C-146.263 85.2285 -150.729 84.3784 -153.919 84.3784C-158.173 84.3784 -162.427 86.0787 -164.979 85.4411C-164.553 86.7163 -162.214 86.7163 -163.703 87.9915C-162.214 87.9915 -161.15 87.9916 -161.15 88.6292C-161.789 89.4793 -163.49 89.6918 -163.065 91.1796C-154.77 93.5175 -146.263 89.4793 -138.181 89.0542C-136.905 89.0542 -137.33 89.6919 -135.629 89.6919C-134.14 89.6919 -132.864 88.8417 -132.439 89.0542C-130.95 89.2668 -130.312 90.7545 -128.398 90.1169C-126.696 88.6291 -118.827 88.6291 -115.849 90.1169C-117.764 92.6674 -126.058 89.4793 -127.547 92.0298C-132.226 90.3294 -135.203 92.88 -138.606 93.9427L-138.181 94.5803L-137.756 95.2179C-127.76 99.2561 -119.04 91.8172 -111.596 93.305C-112.659 94.1552 -114.999 94.5802 -118.189 94.3677C-120.528 96.4931 -121.805 99.4687 -126.696 100.106C-126.696 100.744 -126.696 101.382 -126.696 102.019C-121.167 100.531 -117.338 99.0436 -109.682 99.4686C-107.555 99.0436 -108.618 96.7056 -105.853 96.4931C-105.215 96.4931 -104.79 96.9182 -104.577 97.1308C-104.365 98.8311 -107.342 98.831 -106.492 100.744C-99.8984 100.319 -93.0926 96.7057 -89.477 93.5176C-93.3053 93.9426 -95.0067 92.8799 -95.4321 91.3922C-94.156 91.1796 -92.6672 91.1796 -92.8799 90.3295C-93.5179 89.6918 -94.1559 89.0542 -96.0701 89.2668C-99.473 92.2423 -107.342 89.2667 -112.447 89.9044C-112.021 86.5037 -98.6223 88.6292 -98.6223 86.2912C-95.0067 86.2912 -86.2868 86.5038 -81.6078 85.2285L-82.0332 84.5909L-81.6078 83.9533C-82.0331 83.3156 -85.2233 83.9533 -85.6487 83.3157C-86.7121 82.6781 -85.0106 82.0404 -85.6487 80.7652C-86.7121 80.1276 -88.2009 79.7024 -89.477 79.2774C-87.3502 79.2774 -86.2867 78.6398 -83.5218 78.8523C-83.3091 75.8768 -88.2009 75.6642 -90.115 73.7514C-89.2643 73.7514 -88.2008 73.7514 -88.2008 73.3263L-89.2643 72.9012L-88.8389 72.2636C-89.9023 71.4134 -86.4995 70.1382 -86.2868 69.0755C-83.7346 68.8629 -83.5219 69.9256 -81.6078 70.1382C-79.2683 68.6504 -74.3766 68.6504 -72.4625 66.9501C-73.3132 66.3125 -74.1638 65.8874 -75.0146 65.4623C-73.1005 64.8247 -68.4214 65.0372 -66.5073 65.4623L-66.9327 64.8247L-65.8693 64.6121C-66.5074 63.762 -63.7426 63.3369 -63.9553 63.9745C-64.806 63.9745 -64.5933 64.6121 -65.2313 64.6121L-64.8059 65.2498L-65.2313 65.8874C-64.1679 66.9501 -62.2537 65.6748 -60.5523 65.8874C-59.7016 64.6121 -62.6792 65.6748 -61.8285 64.3996C-60.3397 63.9745 -59.7016 64.3996 -57.7874 63.762C-55.8733 64.8247 -53.5338 65.8874 -50.5562 66.3125C-42.8997 63.9746 -32.9037 61.6366 -23.7585 61.2115C-25.2472 59.5112 -24.6092 58.2359 -22.4824 56.9607C-22.057 57.3858 -23.333 58.8736 -21.8443 58.8736C-21.6316 58.0234 -17.5907 58.4485 -15.8892 57.3858C-15.2512 58.4485 -11.8483 57.8109 -10.5722 58.4485C-10.3595 57.8109 -11.6356 57.5983 -10.5722 57.3858C-5.68051 56.9607 -2.70297 58.4485 1.12527 58.0234C0.274567 55.898 9.20721 58.0234 12.1848 56.5356C12.1848 55.6855 11.1212 55.4729 11.5466 54.4102C6.44223 54.4102 3.03946 51.6472 -1.63956 52.4974L-1.21429 53.135L-1.63956 53.7726C-2.27759 54.4102 -3.76642 54.6228 -5.68054 54.4102C-5.68054 53.9852 -4.61719 53.9851 -4.40451 53.7726L-5.04251 53.135L-4.40451 52.4974C-5.04254 51.6472 -8.44543 53.135 -9.72153 52.0723V52.4974H-10.3596C-11.2103 53.9852 -12.9117 52.0723 -10.3596 52.0723L-10.7849 51.4347L-9.72153 51.6472C-7.59473 48.6716 4.10284 49.3093 4.74091 46.5462C7.08038 47.1839 8.35648 48.2466 10.0579 49.0968C11.5467 46.9714 15.8003 48.2466 16.651 46.1212C16.4383 46.9714 17.9271 46.9714 19.2032 47.1839C23.4568 46.3337 26.647 44.8459 31.7513 44.2083C31.1133 42.0829 37.2811 41.2327 38.3445 43.1456C36.4304 42.9331 36.4304 43.7832 34.5163 43.5707C34.5163 45.6961 37.9192 45.6961 40.4713 46.5462C42.8108 46.1212 41.9601 43.9958 45.7884 44.4208C45.5757 45.0585 46.4264 45.271 46.4264 45.9087L47.4898 45.6961L46.8517 47.1839L46.4264 46.5462C44.0869 47.8215 40.4713 48.4591 39.8333 50.797C36.4304 50.1594 37.9191 52.0723 36.0049 52.2849C34.3035 51.6472 32.6021 51.0096 30.0499 50.797C29.1992 51.0096 30.0499 52.2849 28.7739 52.2849C27.2851 51.6472 23.8821 52.0723 21.5426 51.8597C20.2665 52.4974 20.4792 53.9852 18.9904 54.4102C17.0763 54.4102 14.9495 54.4102 15.1622 55.4729C15.1622 56.7482 19.2031 55.6854 18.9904 56.9607C17.5017 57.3858 15.3749 57.5984 15.1622 58.8736C18.3524 58.6611 19.4159 59.5112 22.3934 59.2986C22.1807 60.5739 23.2442 60.9989 24.9456 61.2115C26.8597 59.7237 30.0499 56.9607 34.0909 57.1732C35.5797 57.1732 36.6431 58.4485 38.7699 58.661C36.8558 59.0861 36.2176 60.1488 32.8147 59.7237C34.5162 61.4241 30.9007 61.8491 30.9007 63.762C33.4529 64.3996 35.5796 63.9745 37.4937 64.3996C33.4528 65.8874 24.9455 64.8247 25.7963 61.424C19.2032 61.6366 14.9496 61.2115 13.2481 64.3996C14.5242 65.4623 18.1397 64.8247 20.4792 64.3996C21.5426 64.8247 21.1172 66.3125 21.1172 67.3752C24.9455 68.4379 27.9231 66.7375 31.5387 66.7375C32.8148 67.3751 32.6021 68.6504 34.7289 68.6504C42.3854 66.525 46.001 70.7758 51.7434 71.8385C56.8477 71.2009 60.8886 73.5388 66.8437 73.7514C71.31 72.2636 80.03 73.1137 83.2202 70.7758C84.2836 70.7758 85.347 70.7758 86.4104 70.7758C89.388 69.9256 93.6416 67.1626 97.4699 65.6748C100.235 64.6121 101.724 64.8247 102.149 65.2498C103.425 64.3996 105.552 63.762 108.104 63.3369L107.041 62.9118L107.466 62.2742C102.787 61.424 110.231 59.5112 112.145 58.661C112.145 58.236 112.145 57.5983 112.145 57.1732L111.082 57.3858C111.932 56.9607 112.57 56.3231 112.358 55.4729L112.783 56.1105C115.548 55.0478 117.887 55.898 120.652 55.0478L121.716 54.8353L121.29 55.4729C121.716 55.4729 122.141 55.4729 122.566 55.4729C123.842 58.0234 131.924 56.7481 132.35 54.8353C135.115 56.7481 140.006 55.0479 145.536 55.4729C145.961 54.1977 148.939 52.4974 150.853 53.9851C149.789 53.9851 148.513 53.9852 148.939 54.6228C152.554 55.2604 154.681 52.2848 158.722 52.0723C162.55 53.135 168.293 52.2849 168.505 50.1595C162.763 48.4591 157.021 51.2221 151.491 49.7343C154.681 48.2466 158.297 48.4591 160.636 46.1212C159.786 45.4836 157.871 45.6961 158.084 44.6334C158.297 43.1456 162.338 43.9958 161.912 42.508C161.062 41.8704 159.573 41.6578 159.998 40.3826C160.636 40.3826 160.849 40.17 161.274 39.9575C163.614 40.17 165.741 40.5952 168.505 40.5952L168.931 39.9575L169.356 40.5952C171.058 38.0447 179.565 38.4698 185.733 38.4698L186.796 38.2572L187.221 38.8948C188.072 38.6823 188.497 38.4698 189.774 38.4698C188.923 38.8948 189.986 40.17 190.412 41.0202C195.941 41.8704 202.534 38.6823 206.15 41.4453L207.213 41.6579L206.788 42.2955C207.426 42.2955 208.064 42.2955 208.702 42.2955C208.702 42.7205 208.702 43.3582 208.702 43.7833C210.616 43.5707 210.404 44.2083 211.892 44.2083C212.105 42.508 214.657 42.0829 217.209 41.6579C217.209 42.2955 217.635 42.508 218.486 42.7206C218.486 42.0829 218.911 41.8704 219.762 41.6579C220.4 42.0829 220.4 42.9331 221.676 43.1456C224.653 41.8704 228.482 45.0585 231.459 43.7833C231.884 42.9331 228.481 42.2955 230.821 41.6579C232.735 41.2328 231.885 42.508 232.097 43.1456C235.287 42.9331 239.328 42.9331 241.242 44.2083C238.69 43.7832 236.351 44.4209 234.011 45.6961C231.246 45.6961 230.183 44.6334 227.418 44.6334C225.717 45.6961 222.952 45.9086 220.825 46.7588C220.825 47.3964 220.825 48.2466 220.825 48.8842C217.635 49.0967 217.209 50.797 213.594 50.797C212.53 53.135 216.359 52.9224 217.635 53.9851L218.06 53.3475L218.486 53.9851C220.825 52.9224 224.653 54.6228 226.355 53.5601C228.056 53.3476 226.78 55.0479 228.907 54.6228C225.291 55.898 221.888 54.8353 218.486 54.1977L218.06 54.8353L216.997 55.0478C216.146 56.9607 215.721 56.1106 213.169 55.6855L212.318 56.3231L211.042 56.1105C210.829 56.3231 211.042 56.7482 210.404 56.7482C208.489 57.8109 209.553 55.6855 207.213 56.1105C205.512 56.3231 204.448 56.9607 201.896 56.7482C202.109 56.3231 202.96 56.1106 203.172 55.6855C199.557 55.6855 199.131 55.6855 196.579 55.6855C198.919 55.6855 193.814 56.1105 193.389 56.1105C193.176 56.1105 192.964 55.898 192.751 55.898C192.538 55.898 192.326 56.1105 191.9 56.1105C190.624 56.3231 188.497 55.898 186.583 56.1105C184.669 57.5983 179.99 57.5983 177.438 58.661C176.162 58.236 175.099 57.8109 173.61 57.5983C172.546 58.0234 172.334 58.8735 171.058 59.0861C171.058 58.2359 170.207 57.5983 168.505 57.5983C167.017 58.236 164.89 58.4485 161.912 58.2359L161.487 58.8736L160.423 58.661C157.659 59.7237 151.916 59.0861 150.64 60.7864C147.45 60.5739 145.11 60.9989 142.771 61.2115L143.196 61.8491L142.133 62.2742C144.685 62.9118 146.174 63.9745 149.364 63.3369C149.789 62.2742 149.577 62.4868 151.278 61.8491C153.405 61.8491 155.107 62.4867 157.871 62.2742C157.871 63.1243 156.595 63.3369 157.871 64.1871C158.297 64.1871 159.147 64.1871 159.147 64.6121C162.976 63.762 166.166 63.9746 166.379 62.0617C169.994 63.5495 171.483 66.0999 176.162 66.7375C172.759 67.1626 171.483 67.3752 168.931 67.3752C171.27 65.4623 159.573 65.2498 159.785 68.0128C162.125 68.2253 166.166 69.0755 168.293 68.4379C168.505 69.5006 172.759 68.6504 173.61 69.5006C172.121 70.7758 170.207 71.626 167.655 72.4761L168.08 73.1137L166.591 73.3263C167.655 76.3018 160.636 74.814 158.722 76.3018L159.147 76.9395L158.722 77.5771C161.912 78.2147 165.528 79.4899 169.143 78.2147C177.863 81.6153 192.538 79.4899 197.43 75.6642C201.046 75.8768 201.684 74.6015 204.661 74.6015L204.236 73.9639L204.661 73.3263C204.874 72.4761 201.684 73.5388 202.747 72.2636L201.684 71.8385L202.109 71.2009C197.005 71.626 195.516 70.5632 191.05 71.8385C191.05 70.5632 194.24 69.5005 191.688 68.8629C192.751 68.8629 193.814 68.8629 194.878 68.8629L195.729 68.2253C196.154 68.863 197.43 69.5006 198.493 69.288L198.281 69.9256C201.684 70.1382 199.982 67.8003 202.109 67.3752C204.874 67.3752 206.788 66.9501 208.702 66.7375C208.49 64.6121 205.299 66.0999 201.471 65.6748C201.471 64.3996 199.344 64.3996 199.557 63.1244C200.195 62.6993 200.195 61.8491 201.471 61.6366C206.575 62.2742 212.53 61.8491 217.209 61.6366C215.508 61.8491 215.721 63.3369 217.209 63.762C220.4 63.5494 223.165 61.2115 226.993 62.6993C227.844 63.9745 224.866 62.9119 225.717 64.1871L226.78 64.6121L226.355 65.2498C228.694 65.4623 229.97 64.8247 231.672 64.6121C232.097 63.1244 228.056 62.2742 230.396 60.999C231.884 62.0617 234.224 62.6993 237.627 62.9118C237.84 62.2742 237.84 61.424 239.541 61.424C240.179 61.424 240.604 61.8492 240.817 62.0617C240.179 62.6993 238.69 62.9118 238.903 63.9745C240.817 64.8247 241.881 64.3996 244.858 64.3996C244.433 65.6748 247.41 65.2498 247.41 66.3125C243.157 67.1627 239.116 70.5632 234.224 68.8629L233.161 68.6504C232.948 68.4378 232.948 68.0128 232.735 67.8002L233.586 67.3752C233.586 66.9501 233.373 66.525 232.948 66.3125C229.332 66.0999 227.206 66.525 226.993 68.2253C228.269 69.0755 230.608 67.5877 232.31 68.6504C229.12 68.8629 225.504 70.7758 220.612 71.2009C219.124 70.5633 214.657 69.9257 212.743 70.5633C214.232 72.0511 217.209 72.9012 219.974 73.7514C219.762 72.2636 222.314 72.9012 223.164 73.3263C224.015 74.8141 221.038 73.9639 221.888 75.4517C223.803 75.8768 224.653 75.2391 227.844 75.4517L227.418 74.8141L228.482 74.389C229.97 72.9012 234.224 73.7514 236.989 73.7514C237.839 73.7514 238.903 73.1137 239.541 73.1137C243.582 72.9012 247.198 73.5388 250.6 73.5388C252.515 73.5388 255.279 72.2636 256.556 73.5388C256.768 74.389 254.003 73.7513 254.641 75.0266L255.067 75.4517L254.641 75.8768C258.257 75.8768 260.809 78.2147 263.149 76.5144C263.149 77.152 263.361 77.5771 263.786 78.0022C269.104 78.0022 268.678 75.0266 271.018 73.3263C272.081 73.7514 274.208 73.5388 275.059 73.9639C273.783 73.9639 273.57 74.389 273.783 75.0266C277.398 76.9394 283.779 76.0893 286.969 74.6015C286.969 75.2391 289.096 74.8141 288.883 75.6642C286.969 76.0893 286.969 77.7896 282.928 77.152C283.353 78.6397 281.864 79.0649 279.738 79.0649L280.163 79.7025L279.1 79.915C279.1 80.1276 279.1 80.3401 279.1 80.5526L280.163 80.9777L279.738 81.6153C286.118 80.7652 291.435 83.7407 292.924 85.6536C289.946 85.6536 288.458 84.8034 286.969 83.7407C282.29 83.5282 278.462 84.3784 275.909 83.3157C275.271 84.1658 272.719 83.9533 272.719 85.2285C274.208 85.4411 276.335 85.4411 276.547 86.2912C272.932 87.1414 268.891 87.779 265.488 88.8417C263.999 89.0542 263.999 88.2041 262.298 88.4166C261.022 90.1169 264.85 90.7545 266.126 89.9044C274.208 89.9044 283.991 91.1796 291.648 89.4793C292.499 90.1169 294.2 90.1169 294.838 90.542C296.752 90.3295 297.603 89.4793 300.793 89.9044C301.431 90.9671 302.069 92.0298 303.345 92.88C311.427 91.8173 324.826 88.8417 332.908 92.2423C333.333 91.1796 330.994 89.9044 332.908 89.2668C345.031 91.6047 355.027 87.779 364.385 87.779C366.086 86.0786 367.15 86.5038 370.978 86.2912C370.765 85.016 369.489 84.1658 369.064 83.1031C371.616 83.7407 369.276 81.6153 370.978 81.6153C376.933 81.4028 379.273 78.0022 385.44 77.5771C389.907 77.3645 394.586 79.7025 400.541 79.0649C403.518 78.6398 405.645 77.7896 409.048 78.6398L409.473 78.0022L410.537 78.2147C411.387 77.7896 411.175 76.9394 411.175 76.0893C410.324 75.6642 409.261 75.4517 408.623 75.0266C409.686 74.389 409.473 73.1138 410.537 72.4761L410.111 72.051C411.813 72.2636 413.94 71.4134 413.089 70.3507L414.365 70.5633C414.365 69.7131 415.216 68.0128 418.406 69.0755C419.257 68.4379 419.257 67.5877 420.32 67.1626C423.936 66.7376 425.85 68.6504 428.827 67.5877C429.04 68.0128 429.678 68.2253 429.465 69.0755C435.208 67.3752 437.973 69.9257 443.29 70.5633C443.502 69.0755 446.055 68.2253 442.652 67.5877C445.842 67.8002 446.267 66.525 449.245 66.525C449.457 67.5877 447.756 67.5877 447.969 68.6504C450.734 69.0755 454.562 70.7758 457.752 69.7131C457.114 69.7131 456.05 68.0128 457.114 68.2253C462.218 68.0128 463.707 70.1382 468.173 68.6504C467.535 68.6504 467.323 68.0128 468.173 68.0128L469.237 67.8002C469.45 68.2253 469.662 68.4378 470.087 68.6504C470.725 68.6504 471.789 68.8629 472.64 68.8629L472.214 69.5006C477.744 69.7131 487.74 69.288 491.781 67.5877C492.844 67.5877 492.206 68.4379 493.695 68.2253C495.397 68.2253 494.546 66.7375 496.247 66.7375C497.311 68.0128 499.863 68.4379 499.438 70.3507C496.46 69.9257 495.184 70.7758 493.482 71.8385C496.885 72.9012 504.329 73.3263 507.945 71.4134C509.859 71.8385 511.135 72.9012 513.9 72.051C514.325 70.7758 511.56 71.4134 511.348 70.5633C517.515 67.8003 524.959 68.2253 530.276 65.8874C537.933 65.6748 543.675 68.0128 551.332 68.8629C551.332 69.5005 553.033 69.0755 552.608 69.9256C549.843 71.6259 546.227 73.7514 540.06 72.4761C538.571 73.1138 533.467 74.6015 532.19 73.1137C534.105 72.051 532.828 70.9884 532.19 69.5006L531.127 69.7131L530.702 69.0755C528.787 68.8629 528.575 67.8002 526.023 68.0128C525.597 69.7131 520.068 71.626 522.832 72.6887C518.791 72.0511 519.004 73.9639 516.239 74.1764C509.221 73.9639 505.605 76.0893 498.587 74.8141C498.374 76.0893 496.247 76.3019 494.759 76.9395C495.822 78.2147 494.971 80.5526 497.949 80.5526C498.161 78.2147 500.714 77.3646 504.542 76.9395C508.37 78.2147 509.859 77.152 514.325 78.4272C518.153 77.3645 520.706 77.3645 523.471 75.4517C527.299 76.5144 530.702 79.0648 536.019 77.3645L536.444 76.7269C536.657 76.9395 536.657 77.152 536.869 77.3645C540.06 78.6398 544.1 78.2147 547.716 78.2147L537.507 76.9395C538.571 73.7514 546.865 76.0893 549.205 77.3645C550.056 76.9394 549.418 75.6642 551.119 75.4517C557.5 78.4272 568.984 77.3645 577.279 76.0893C577.279 77.152 577.279 78.2147 577.279 79.2774C581.107 79.915 581.107 78.8523 583.872 78.2147C583.446 77.7896 581.32 78.2147 581.32 77.5771C581.532 77.152 582.171 76.9394 581.958 76.0893C582.809 76.5143 585.148 76.5143 585.999 76.0893C587.7 75.2391 584.935 75.4517 585.361 74.1764C589.827 72.4761 596.846 75.4517 591.954 77.3645C590.89 76.3018 588.126 77.3645 587.275 77.7896C588.126 79.4899 589.189 80.3401 589.189 81.8279C591.954 81.4028 595.569 82.6781 598.334 82.253C597.696 80.9777 595.995 80.1275 594.506 79.2774C595.995 79.0648 594.506 77.3645 596.42 77.3645C603.864 78.6398 609.394 75.6642 614.711 78.0022C611.946 78.6398 609.181 78.0022 605.565 78.6398C607.054 80.1276 603.013 80.1275 604.289 82.678C608.33 82.4655 612.159 83.7407 615.349 82.678C615.561 82.0404 614.498 82.0404 614.073 81.6153C619.39 81.6153 624.707 82.0404 629.811 81.1903C631.513 81.4028 632.789 83.1031 634.49 82.253C636.192 81.8279 635.766 80.1276 637.68 79.7025C641.721 79.2774 642.147 80.7652 643.635 81.8279C659.374 80.7652 675.537 83.3157 690 82.253V69.0755V60.5739V3.8147e-05H147.025H142.133H139.155H136.178H130.861H128.947H120.227H116.186H115.548H77.6906H77.4778H60.8887H47.7024H38.5571H-369.578H-369.791H-400.63C-399.354 0.425125 -398.29 0.637688 -396.589 0.425148C-398.716 1.48785 -400.842 1.48783 -403.182 1.27529V11.9023C-398.716 11.2647 -394.249 13.8151 -389.996 11.4772C-389.358 12.1148 -388.507 12.5399 -388.081 13.39C-391.91 13.1775 -393.186 14.4528 -396.589 15.3029C-399.779 15.0904 -401.055 15.9406 -403.182 16.3656V20.1913C-401.055 20.1913 -398.928 19.9788 -397.865 20.6164C-397.865 21.0415 -397.865 21.6791 -397.865 22.1042C-399.141 21.4666 -401.268 22.5292 -403.182 22.9543Z" fill="white"/>
<path d="M688.724 88.204L688.299 88.8416C688.724 88.8416 688.937 88.8416 689.362 88.8416V86.7162C688.724 87.1412 688.086 87.3538 687.661 87.7789L688.724 88.204Z" fill="white"/>
<path d="M409.048 79.0648C410.749 79.4899 414.152 79.7024 415.003 78.6397C413.94 78.2146 412.876 77.577 410.324 78.0021L410.75 78.6397L409.686 78.4272C409.899 78.8522 409.261 78.8523 409.048 79.0648Z" fill="white"/>
<path d="M155.532 73.3262L156.595 73.7513L156.17 74.3889C159.147 74.8139 161.912 74.1764 164.677 73.7513C165.528 73.7513 165.953 74.3889 165.953 73.3262L164.89 72.9011L165.315 72.2635C161.912 71.8384 157.446 72.6885 155.532 73.3262Z" fill="white"/>
<path d="M126.607 62.0616C128.096 63.1243 131.499 63.3369 133.838 63.9745C134.476 63.5494 134.476 62.6992 135.753 62.4867L135.327 61.8491L136.391 61.424C133.413 59.9362 128.521 60.3613 126.607 62.0616Z" fill="white"/>
<path d="M210.616 50.797L209.553 51.0096C209.978 50.5845 210.191 50.1594 209.978 49.7343H210.616C213.381 50.1594 214.232 49.9469 216.571 49.3093C216.784 47.3964 214.444 46.5463 211.892 46.1212C209.34 46.7588 204.874 48.8842 202.747 47.6089C202.747 47.1838 203.81 47.1839 204.023 46.9713C200.195 47.1839 195.303 45.6961 192.964 47.3964L193.389 48.034L193.814 48.6716C194.878 50.1594 190.624 48.6716 192.538 48.6716L192.113 48.034L192.538 47.3964C186.796 45.271 184.456 48.034 180.841 49.3093C178.501 50.1594 175.524 49.7344 175.524 51.2221C176.587 51.2221 177.863 51.0096 178.076 51.6472C175.737 51.8597 174.886 53.3475 172.121 52.2848C171.908 52.7099 171.27 52.9224 171.483 53.7726L171.908 54.4102L171.483 55.0478C175.736 55.2604 185.52 55.6855 187.859 53.5601C189.135 53.9852 192.538 53.3475 191.688 55.0478C192.751 53.7726 195.303 55.2604 197.005 55.0478C198.068 54.8353 199.982 52.9225 200.833 54.6228C200.62 53.7726 201.046 53.3475 202.109 53.135C203.81 54.1977 206.575 54.6228 208.702 55.2604C209.34 54.4102 211.042 54.4102 213.381 54.6228L213.806 53.9851L214.87 53.7726C213.806 52.2848 209.765 52.9224 210.616 50.797Z" fill="white"/>
<path d="M164.039 54.8352C165.315 54.8352 168.293 55.6853 169.356 54.8352L168.931 54.1976L169.356 53.56C167.867 53.1349 163.827 53.5599 164.039 54.8352Z" fill="white"/>
<path d="M199.982 41.8704C199.77 42.9331 200.833 43.3581 201.896 43.7832L202.322 43.1455L203.385 43.3581C204.023 43.3581 204.449 42.933 204.661 42.7205L203.598 42.508L204.023 41.8704C202.534 41.6578 201.684 41.4453 199.982 41.8704Z" fill="white"/>
<path d="M187.647 41.4452C187.859 40.3825 186.796 39.9574 186.371 39.3198L185.307 39.5324L184.882 38.8947C183.18 39.1072 182.33 39.9574 180.203 39.9574C179.565 41.0201 179.99 41.0202 180.841 41.8703L181.904 42.0828L181.479 42.7205C184.031 42.5079 184.244 41.2327 187.647 41.4452Z" fill="white"/>
<path d="M175.737 40.3826C175.737 41.0202 175.737 41.8704 175.737 42.508C177.438 42.508 177.013 43.1456 178.289 42.508L177.863 41.8704L178.289 41.2327C178.501 40.5951 177.013 40.5951 175.737 40.3826Z" fill="white"/>
<path d="M166.591 42.5079L167.867 42.2954L168.506 42.933C169.569 43.1456 170.632 41.6578 169.144 41.4452L168.506 42.0828L167.867 41.4452C166.591 41.2327 164.89 42.5079 166.591 42.5079Z" fill="white"/>
<path d="M164.039 43.9958C165.741 45.4836 169.569 44.4208 170.632 43.3581C169.994 43.3581 169.356 43.3581 168.718 43.3581L167.655 43.7832L166.591 43.3581C165.528 43.3581 163.401 42.9331 164.039 43.9958Z" fill="white"/>
<path d="M120.014 63.5494L119.589 62.9118L120.652 62.6993C122.141 62.6993 120.652 61.424 120.014 61.2115L118.951 61.424L119.376 60.7864C118.951 60.7864 118.1 60.7864 118.1 61.2115L118.951 62.0617L118.738 63.1244C118.951 63.5495 119.376 63.5494 120.014 63.5494Z" fill="white"/>
<path d="M116.186 66.0999C120.865 67.3751 125.756 65.8874 128.734 64.187C125.544 64.187 123.417 63.7619 120.865 63.5494L121.29 64.187L120.227 64.3995C119.589 65.4622 116.186 64.8246 116.186 66.0999Z" fill="white"/>
<path d="M571.749 83.103C571.749 82.4654 573.663 82.8904 573.663 82.4654C573.025 81.6152 570.26 82.8905 571.749 83.103Z" fill="white"/>
<path d="M491.781 72.9011C482.636 71.8384 483.061 76.7268 477.319 77.1519C477.319 77.7895 477.319 78.6397 477.319 79.2773C474.341 79.2773 472.64 79.7024 471.364 79.2773C473.065 76.7268 464.558 77.577 462.218 77.7896C463.494 76.5143 461.368 76.7268 460.942 75.6642C457.752 75.4516 456.689 76.3017 453.711 76.0892C453.498 76.7268 453.924 77.3645 453.073 77.577C450.521 76.0892 443.077 77.1519 442.014 78.6397C443.928 80.5526 447.969 80.34 451.159 80.1275C451.584 79.0648 449.883 79.4899 449.883 78.6397C451.372 78.4272 452.648 78.2146 453.711 78.0021C453.498 79.0648 455.413 79.0648 455.625 79.9149C457.965 79.9149 457.965 78.8522 460.304 78.8522C461.155 79.7024 463.495 79.7024 464.133 80.7651C463.282 82.2529 460.517 82.6779 458.816 83.7406C456.263 83.103 454.775 81.8278 453.499 80.5525C447.969 82.6779 436.484 79.0648 433.081 81.1902C430.954 79.7024 427.126 79.7024 423.298 80.5525L423.723 81.1902C421.809 80.9777 419.257 80.7651 417.768 81.8278L418.193 81.1902C416.279 80.5526 411.6 80.7651 410.962 81.8278C412.238 82.8905 415.641 84.1658 418.193 83.3156L417.768 82.6779L419.682 83.3156L418.619 83.103C418.193 83.7407 416.705 83.9532 416.067 84.5908C411.388 83.7406 404.582 84.1657 399.69 82.6779C397.776 83.103 395.649 83.5281 395.011 84.8033C395.224 85.6535 398.201 85.0159 397.563 86.2911C397.138 86.2911 396.713 86.2911 396.925 86.7162L397.351 87.3538L396.287 87.5664C399.477 89.4793 410.324 86.9288 412.664 89.4792C409.048 90.7545 403.731 91.6046 400.966 92.4548C401.391 92.4548 402.242 92.4548 402.242 92.8799C400.328 93.0924 399.052 93.73 397.563 94.3676C397.138 95.6429 400.328 94.7927 399.477 96.2805C397.351 95.4303 396.075 96.068 394.16 95.6429L393.735 96.2805L393.31 96.9181C393.522 97.3432 391.395 98.1933 391.395 97.3432C391.395 97.1306 391.395 96.9181 391.395 96.7056L390.332 96.493L390.758 95.8554C389.481 95.8554 383.526 96.2805 381.612 96.9181L382.038 97.5557C380.549 97.3432 379.273 97.7683 378.209 98.1934C378.209 98.6185 378.209 98.831 378.422 99.2561C379.911 99.6812 381.399 99.4686 382.888 99.2561L382.463 99.8937C387.78 101.807 395.436 100.956 398.839 101.807L399.265 101.169C399.477 101.594 399.69 101.807 399.903 102.232C400.328 102.657 400.754 103.082 401.179 103.294L400.116 103.507C399.478 104.995 396.925 105.42 395.436 106.482C402.668 106.27 410.749 106.695 412.451 111.158C415.854 111.371 419.47 108.608 421.596 110.521C418.193 112.859 413.089 114.346 411.813 117.747C412.664 117.747 412.664 118.172 413.727 118.172C419.682 114.984 424.999 111.371 430.741 107.97C430.954 106.907 429.04 107.12 428.828 106.057C430.529 102.444 438.611 104.57 441.376 101.381C448.181 101.169 450.946 98.6184 452.435 95.6429C451.159 94.7927 449.245 94.1551 448.394 93.0924C451.797 92.6673 453.286 91.1795 455.625 90.1168C458.178 90.967 460.304 89.9043 462.857 90.5419C462.431 89.4792 464.558 89.9043 464.133 88.6291C464.345 87.7789 461.58 88.4165 462.218 87.1413C463.282 87.1413 464.345 87.1413 464.77 86.7162C465.196 85.4409 463.282 85.2284 463.494 84.1657C465.834 84.8034 468.174 82.8905 469.45 82.0403C473.278 81.6153 474.128 83.103 475.405 84.1657C474.554 84.1657 473.916 84.3782 473.491 84.5908L473.916 85.2284L472.852 85.6535C472.852 86.5036 475.192 85.8661 476.043 86.0786C476.468 87.1413 473.703 87.1413 475.405 87.9914C477.957 88.4165 477.319 87.1413 479.446 87.3538C477.957 88.8416 474.554 89.0541 473.491 90.967H472.852C472.852 89.9043 470.513 89.9043 469.662 90.3294C469.45 91.1795 470.513 91.6046 472.214 91.3921L471.789 90.7545C472.64 91.1796 473.49 90.967 474.129 90.967V90.3294C478.807 92.0297 486.039 89.4792 489.867 88.4165C487.102 87.7789 484.763 86.7162 482.636 85.441C485.401 83.9532 491.356 84.1658 493.057 82.2529C491.143 79.7024 494.759 76.7268 491.781 72.9011Z" fill="white"/>
<path d="M399.903 102.019L400.328 101.381L399.265 101.169C399.477 101.594 399.265 102.019 399.903 102.019Z" fill="white"/>
<path d="M392.672 91.8172C392.246 92.0297 391.183 93.5175 392.672 93.7301L393.735 93.9426L394.16 94.5802C395.649 93.5175 395.437 91.8172 392.672 91.8172Z" fill="white"/>
<path d="M141.07 89.6919C147.025 88.2041 152.129 86.2912 159.998 86.0787L159.573 85.4411L159.998 84.8034C157.446 83.5282 151.278 84.8034 146.812 84.8034C144.473 84.8034 142.558 83.5282 141.495 84.8034C142.346 83.7407 140.432 83.9533 140.219 83.3157C133.626 82.8906 124.055 81.8279 118.525 83.7407C103 80.7652 92.3656 85.8661 76.6272 86.7163C75.7765 87.779 76.4145 88.6292 77.9033 89.2668C75.5638 89.0542 74.2877 89.6918 72.5862 89.9044C71.9482 91.6047 76.2018 90.7545 75.7765 92.4549C74.2877 92.2423 73.2243 92.4549 72.5862 92.88L73.0116 93.5176L72.5862 94.1552C77.0525 95.2179 82.795 95.8555 88.3247 96.2806C85.9852 97.1307 86.4105 98.406 87.0485 100.319C93.8543 103.294 103.85 99.8938 110.018 98.1935C112.57 99.0436 116.611 99.0436 119.802 99.6812C128.947 98.1934 132.988 93.9427 140.857 91.8173L140.432 91.1796L141.495 90.7546C141.708 89.9044 141.07 89.9044 141.07 89.6919Z" fill="white"/>
<path d="M62.3776 94.3676C64.079 95.4303 69.1834 95.2178 70.8848 94.3676L70.4594 93.73L70.8848 93.0924C68.3326 92.2422 63.0156 92.4548 62.3776 94.3676Z" fill="white"/>
<path d="M318.446 128.799L311.64 129.437C313.767 129.437 316.106 129.437 318.446 128.799Z" fill="white"/>
<path d="M244.22 107.12C242.944 107.12 241.668 107.545 240.392 107.545L244.22 107.12Z" fill="white"/>
<path d="M359.068 100.106C358.217 100.106 357.366 100.106 356.516 100.319L359.068 100.106Z" fill="white"/>
<path d="M38.9825 95.4304C38.3445 95.4304 37.7064 95.6429 37.0684 95.8555L38.9825 95.4304Z" fill="white"/>
<path d="M45.5756 92.2423L38.9825 92.6674C41.322 92.6674 43.4488 92.6673 45.5756 92.2423Z" fill="white"/>
<path d="M363.109 90.7545L357.154 92.4548C359.706 92.4548 360.982 91.3922 363.109 90.7545Z" fill="white"/>
<path d="M558.988 80.7651L560.903 80.5526C560.264 80.5526 559.626 80.7651 558.988 80.7651Z" fill="white"/>
<path d="M643.423 85.8661C642.147 85.441 640.871 85.441 639.382 85.441L643.423 85.8661Z" fill="white"/>
<path d="M639.594 85.441L631.725 84.3783C633.852 85.441 636.829 85.2285 639.594 85.441Z" fill="white"/>
<path d="M245.496 85.8661L243.582 86.0786C244.22 85.8661 244.858 85.8661 245.496 85.8661Z" fill="white"/>
<path d="M526.874 81.8279C521.982 81.6153 517.303 81.4028 512.411 81.4028L526.874 81.8279Z" fill="white"/>
<path d="M122.354 76.5144C123.417 76.7269 124.48 76.0893 125.544 75.8768L122.354 76.5144Z" fill="white"/>
<path d="M147.238 74.814C146.387 74.814 145.536 75.0265 144.685 75.0265L147.238 74.814Z" fill="white"/>
<path d="M106.615 71.6259L103.425 70.5632C104.276 71.2008 105.552 71.4133 106.615 71.6259Z" fill="white"/>
<path d="M14.0989 68.8629L16.6511 68.6504C15.5877 68.4378 14.9496 68.6504 14.0989 68.8629Z" fill="white"/>
<path d="M408.835 77.5771L410.75 78.6398C410.112 78.2147 409.686 77.7896 408.835 77.5771Z" fill="white"/>
<path d="M279.738 80.34L276.973 80.7651C277.824 80.5526 278.887 80.5526 279.738 80.34Z" fill="white"/>
<path d="M273.144 78.2146L279.738 78.8523C277.611 78.4272 275.484 77.7896 273.144 78.2146Z" fill="white"/>
<path d="M252.515 75.2391L254.854 74.8141C253.791 74.6016 253.365 75.0266 252.515 75.2391Z" fill="white"/>
<path d="M226.567 64.6121L222.739 64.3995C224.015 64.6121 225.291 65.0371 226.567 64.6121Z" fill="white"/>
<path d="M201.684 71.8384L205.512 71.4133C204.236 71.2008 202.96 71.4133 201.684 71.8384Z" fill="white"/>
<path d="M149.789 77.7896L158.935 76.7269C155.957 76.9394 151.916 76.0892 149.789 77.7896Z" fill="white"/>
<path d="M164.89 72.9011H167.442C166.804 72.9011 165.74 72.6886 164.89 72.9011Z" fill="white"/>
<path d="M138.517 61.849H135.327C136.603 62.0616 137.454 61.849 138.517 61.849Z" fill="white"/>
<path d="M138.517 61.8491H142.558C141.282 61.424 139.793 61.6366 138.517 61.8491Z" fill="white"/>
<path d="M161.062 58.661C160.424 58.2359 159.998 57.8109 159.573 57.5983L161.062 58.661Z" fill="white"/>
<path d="M211.68 56.1105C211.467 55.8979 211.254 55.6854 210.829 55.4729L211.68 56.1105Z" fill="white"/>
<path d="M217.422 54.6228L213.594 53.5601C214.657 54.1977 215.721 54.6228 217.422 54.6228Z" fill="white"/>
<path d="M171.483 53.9851L168.931 54.4102C169.782 54.1976 170.632 54.1976 171.483 53.9851Z" fill="white"/>
<path d="M206.15 41.6578C205.087 41.8704 204.661 42.0829 203.598 42.2954L206.15 41.6578Z" fill="white"/>
<path d="M202.322 43.1455L202.535 44.4208C202.747 43.9957 202.747 43.5706 202.322 43.1455Z" fill="white"/>
<path d="M181.904 42.0828H177.863C179.352 42.0828 180.841 42.2953 181.904 42.0828Z" fill="white"/>
<path d="M168.293 40.17C168.293 40.5951 168.505 41.2327 168.718 42.0829L168.293 40.17Z" fill="white"/>
<path d="M167.867 42.2954C167.655 42.7205 167.655 43.1456 167.655 43.7832L167.867 42.2954Z" fill="white"/>
<path d="M121.078 54.6227L119.376 55.6854C120.227 55.4729 120.652 55.0478 121.078 54.6227Z" fill="white"/>
<path d="M106.615 62.6992L118.951 62.0616C114.697 62.2742 110.656 62.4867 106.615 62.6992Z" fill="white"/>
<path d="M120.652 60.3612C120.227 60.5738 119.801 60.9989 118.951 61.6365L123.842 60.3612C122.992 60.1487 121.715 60.1487 120.652 60.3612Z" fill="white"/>
<path d="M119.802 63.1243C120.227 63.5494 120.652 63.7619 121.078 64.187L119.802 63.1243Z" fill="white"/>
<path d="M378.847 98.4059L366.937 99.2561C370.978 99.2561 375.019 99.0435 378.847 98.4059Z" fill="white"/>
<path d="M393.097 95.2178L393.735 93.73C393.097 94.3677 392.884 94.7927 393.097 95.2178Z" fill="white"/>
<path d="M393.097 87.5664L397.776 87.1413C396.287 86.9288 394.373 87.1413 393.097 87.5664Z" fill="white"/>
<path d="M73.2241 93.5175C72.3733 93.7301 71.5227 93.7301 70.672 93.9426L73.2241 93.5175Z" fill="white"/>
<path d="M159.785 85.441C160.849 85.2285 161.912 85.2285 162.763 84.8034L159.785 85.441Z" fill="white"/>
<path d="M140.644 90.7546C141.495 90.9671 142.346 90.7545 143.197 90.967L140.644 90.7546Z" fill="white"/>
</svg>
