<svg width="815" height="89" viewBox="0 0 815 89" fill="none" xmlns="http://www.w3.org/2000/svg">
<path d="M0 69.4007V57.4232C3.71526 57.4232 7.82162 57.4232 12.1235 58.3306C11.5369 57.9676 11.3414 57.4232 11.5369 56.6973C12.9057 56.5158 13.8834 56.1529 15.8388 56.3343C16.621 57.7862 18.1853 57.9677 16.4254 59.4195C17.4031 59.7824 20.7273 60.6898 21.3139 59.4195C20.7273 59.4195 20.1406 59.4195 19.554 59.4195C19.1629 58.1491 22.0961 57.9676 20.7273 57.2417C18.1853 55.9714 25.0292 54.8825 25.0292 52.8863C22.8783 51.616 18.1852 51.616 16.6209 50.1642L17.5986 49.8012L17.2076 49.2568C21.9006 49.6197 27.1801 51.253 31.6775 49.8012C35.7838 50.7086 39.108 51.9789 44.9742 51.9789C44.3875 51.0715 45.9519 51.0716 46.1475 50.3456C48.2984 50.7086 52.7959 50.5271 53.3825 49.0753C51.6226 49.0753 49.2761 49.2568 49.0806 48.5309L50.0583 48.1679L49.6672 47.6235C50.6449 46.8976 54.9467 47.8049 55.7289 47.079C54.9467 45.9902 53.7735 45.2643 52.2092 44.5384C47.5162 44.9013 45.7563 42.7236 41.4545 41.9977C41.0634 40.3644 40.2813 38.9126 35.9794 39.2756C35.9794 38.5497 35.9794 37.8238 36.566 37.4608C39.3035 38.0052 40.2813 37.6423 42.6278 38.0052C41.0635 35.646 32.4597 36.5534 29.9177 38.0052C27.7668 37.8237 23.4648 38.5497 23.8559 37.0978C25.4202 37.0978 26.789 36.9164 27.5712 36.5534C25.6158 35.8275 24.638 34.5572 21.5094 34.3757C21.5094 35.1016 21.5094 35.8275 20.9228 36.1905C19.7495 36.1905 18.5763 36.1905 17.4031 36.1905C17.7942 37.8237 13.8834 37.4608 14.47 38.3682C13.8834 37.4608 11.7324 37.2794 10.1681 36.7349C10.7547 35.6461 13.6879 35.646 11.928 34.1942C14.6656 33.2868 17.9898 32.3795 22.0961 32.9239C24.4426 32.0165 25.2246 31.1091 29.331 31.6536L28.94 32.198L29.9177 32.0165C32.0686 32.9239 34.2195 31.6536 37.1526 31.1091C39.8901 30.5647 41.259 31.4721 40.6724 29.8388L41.6501 29.4759L41.259 28.9314C43.9965 28.9314 47.3206 29.1129 47.9073 28.024L48.885 27.8425L48.494 27.2981C56.9022 27.2981 64.7238 24.3945 71.9588 25.6649L70.9811 26.0278L74.5008 26.2093C77.0428 26.2093 79.3893 26.0278 81.7357 26.5722L81.3447 26.0278C83.1045 25.8463 84.8643 25.4834 85.0598 24.3945C82.7134 24.0315 81.3446 24.0315 78.9981 24.3945C79.5848 23.4871 77.0427 24.0316 77.2382 23.1242L78.2159 22.9427C77.6293 22.9427 77.2383 22.9427 76.6516 22.7612C76.2606 22.5798 76.0651 22.2168 75.8696 21.8538L75.4785 22.3983C73.132 21.8538 73.132 20.0391 70.59 19.6761C67.8524 19.6761 63.9416 20.765 62.7684 20.5835C65.5059 18.7687 58.662 17.3169 54.9468 16.954C54.7512 16.2281 54.9467 15.6836 55.5334 15.3207C54.5557 14.9577 52.9913 14.9577 52.6003 14.4133L52.9914 13.8689L52.0137 13.6874C63.7461 12.9615 76.0651 11.6912 85.2554 14.5948C87.6019 13.6874 89.7528 14.0503 91.9037 14.2318C91.7082 13.3244 93.2726 13.3244 93.077 12.4171C90.1439 10.6023 83.6911 12.2356 79.7803 10.6023L80.758 10.2394L80.367 9.69491C88.1885 9.69491 94.2502 9.69494 102.658 9.33199C103.245 8.96904 103.245 8.24314 103.832 7.69871C101.094 6.42838 98.5521 5.15802 97.7699 2.79883L98.7476 2.61734L99.1387 2.07294C102.072 2.61737 104.418 5.158 108.134 4.25062C106.765 2.79881 103.049 2.43586 102.658 0.621094C106.96 1.52848 112.631 1.52848 114.782 3.34324C115.369 2.79881 116.737 2.98031 117.715 2.79883C117.715 3.88769 119.475 4.06915 118.888 5.33949L117.911 5.52098L118.302 6.06538C116.346 6.42834 117.52 4.97653 115.955 5.158C113.804 5.70243 111.849 5.88393 109.307 5.52098C111.262 7.51722 114.195 8.78754 119.475 8.96902C120.453 10.6023 117.911 10.6023 118.302 12.0541C120.257 12.2356 122.212 12.2356 122.604 13.3244C119.67 14.5948 114.586 12.0541 110.48 13.6874C109.307 13.3245 108.134 13.143 106.765 12.78C105.983 13.3245 103.636 12.9615 103.832 14.0504C104.223 15.1392 105.983 15.5022 107.351 16.2281C116.542 15.8651 122.212 18.4058 129.056 17.1355C128.861 16.4095 129.056 15.8651 129.643 15.5022C134.727 15.8651 137.465 17.4984 142.353 18.0428C142.94 16.954 144.504 16.5911 146.068 15.8651C147.437 16.0466 148.415 16.4095 150.37 16.2281C151.152 18.2243 154.281 18.9502 159.365 18.7687C159.365 18.4058 159.561 18.0428 159.952 17.8613C167.187 17.6799 168.164 20.765 174.422 21.3094C174.422 22.0353 174.813 22.5798 175.595 22.9427C180.092 22.9427 189.283 21.4909 193.584 23.4871C201.21 22.2168 214.312 24.0316 221.938 22.9427C223.893 22.5798 226.435 22.9427 229.759 22.5797C229.564 21.6724 231.324 21.6724 231.519 20.9465C230.15 20.402 230.15 19.1317 230.346 17.8613C232.301 17.8613 235.43 18.9502 236.994 18.2243C236.212 16.2281 232.106 16.954 229.173 16.954C225.262 16.954 221.351 15.5022 219.005 16.0466C219.396 14.9577 221.547 14.9578 220.178 13.8689C221.547 13.8689 222.524 13.8689 222.524 13.3244C221.938 12.5985 220.373 12.4171 220.765 11.1468C228.391 9.15051 236.212 12.5986 243.643 12.9615C244.816 12.9615 244.425 12.4171 245.989 12.4171C247.358 12.4171 248.531 13.143 248.922 12.9615C250.291 12.78 250.878 11.5097 252.637 12.0541C254.202 13.3245 261.437 13.3245 264.174 12.0541C262.415 9.87642 254.788 12.5986 253.42 10.4209C249.118 11.8727 246.38 9.69491 243.252 8.78753L243.643 8.24312L244.034 7.69871C253.224 4.25066 261.241 10.6023 268.085 9.33199C267.108 8.60608 264.956 8.24313 262.023 8.42461C259.872 6.60985 258.699 4.06915 254.202 3.52473C254.202 2.9803 254.202 2.43588 254.202 1.89145C259.286 3.16178 262.806 4.43214 269.845 4.06919C271.8 4.43214 270.823 6.42837 273.365 6.60985C273.951 6.60985 274.342 6.24686 274.538 6.06538C274.734 4.61357 271.996 4.61361 272.778 2.98032C278.84 3.34327 285.097 6.42836 288.421 9.1505C284.902 8.78755 283.337 9.69493 282.946 10.9653C284.119 11.1467 285.488 11.1467 285.293 11.8726C284.706 12.4171 284.119 12.9615 282.36 12.78C279.231 10.2394 271.996 12.7801 267.303 12.2356C267.694 15.1392 280.013 13.3244 280.013 15.3207C283.337 15.3207 291.354 15.1392 295.656 16.2281L295.265 16.7725L295.656 17.3169C295.265 17.8614 292.332 17.3169 291.941 17.8613C290.963 18.4058 292.528 18.9502 291.941 20.0391C290.963 20.5835 289.595 20.9465 288.421 21.3094C290.377 21.3094 291.354 21.8538 293.896 21.6724C294.092 24.213 289.595 24.3945 287.835 26.0278C288.617 26.0278 289.595 26.0278 289.595 26.3908L288.617 26.7537L289.008 27.2981C288.03 28.024 291.159 29.1129 291.354 30.0203C293.701 30.2018 293.896 29.2944 295.656 29.1129C297.807 30.3832 302.305 30.3832 304.064 31.835C303.282 32.3795 302.5 32.7424 301.718 33.1054C303.478 33.6498 307.78 33.4684 309.54 33.1054L309.149 33.6498L310.126 33.8313C309.54 34.5572 312.082 34.9201 311.886 34.3757C311.104 34.3757 311.299 33.8313 310.713 33.8313L311.104 33.2868L310.713 32.7424C311.691 31.835 313.45 32.9239 315.015 32.7424C315.797 33.8313 313.059 32.9239 313.841 34.0128C315.21 34.3757 315.797 34.0128 317.557 34.5572C319.317 33.6498 321.468 32.7424 324.205 32.3794C331.245 34.3757 340.435 36.372 348.843 36.7349C347.474 38.1867 348.061 39.2756 350.016 40.3645C350.407 40.0015 349.234 38.7311 350.603 38.7311C350.799 39.457 354.514 39.0941 356.078 40.0015C356.665 39.0941 359.793 39.6385 360.967 39.0941C361.162 39.6385 359.989 39.82 360.967 40.0015C365.464 40.3644 368.202 39.0941 371.721 39.4571C370.939 41.2718 379.152 39.457 381.889 40.7274C381.889 41.4533 380.912 41.6348 381.303 42.5421C376.61 42.5421 373.481 44.9013 369.179 44.1754L369.57 43.631L369.179 43.0866C368.593 42.5422 367.224 42.3607 365.464 42.5421C365.464 42.9051 366.442 42.9051 366.637 43.0866L366.051 43.631L366.637 44.1754C366.051 44.9013 362.922 43.631 361.749 44.5384V44.1754H361.162C360.38 42.9051 358.816 44.5384 361.162 44.5384L360.771 45.0828L361.749 44.9014C363.704 47.442 374.459 46.8976 375.046 49.2568C377.196 48.7124 378.37 47.8049 379.934 47.079C381.303 48.8938 385.214 47.8049 385.996 49.6197C385.8 48.8938 387.169 48.8938 388.342 48.7123C392.253 49.4382 395.186 50.7086 399.879 51.253C399.292 53.0678 404.963 53.7937 405.941 52.1604C404.181 52.3419 404.181 51.616 402.421 51.7974C402.421 49.9827 405.55 49.9827 407.896 49.2568C410.047 49.6197 409.265 51.4345 412.785 51.0715C412.589 50.5271 413.371 50.3456 413.371 49.8012L414.349 49.9827L413.762 48.7123L413.371 49.2568C411.22 48.1679 407.896 47.6235 407.31 45.6273C404.181 46.1717 405.55 44.5384 403.79 44.3569C402.225 44.9013 400.661 45.4458 398.315 45.6273C397.533 45.4458 398.315 44.3569 397.142 44.3569C395.773 44.9013 392.644 44.5384 390.493 44.7199C389.32 44.1754 389.515 42.9051 388.147 42.5421C386.387 42.5421 384.431 42.5421 384.627 41.6348C384.627 40.5459 388.342 41.4533 388.147 40.3645C386.778 40.0015 384.822 39.82 384.627 38.7311C387.56 38.9126 388.538 38.1867 391.275 38.3682C391.08 37.2793 392.057 36.9164 393.622 36.7349C395.382 38.0053 398.315 40.3644 402.03 40.183C403.399 40.183 404.376 39.0941 406.332 38.9126C404.572 38.5497 403.985 37.6423 400.857 38.0052C402.421 36.5534 399.097 36.1905 399.097 34.5572C401.443 34.0128 403.399 34.3757 405.159 34.0128C401.443 32.7424 393.622 33.6498 394.404 36.5534C388.342 36.372 384.431 36.7349 382.867 34.0128C384.04 33.1054 387.364 33.6498 389.515 34.0128C390.493 33.6498 390.102 32.3794 390.102 31.4721C393.622 30.5647 396.359 32.0165 399.684 32.0165C400.857 31.4721 400.661 30.3833 402.617 30.3833C409.656 32.198 412.98 28.5685 418.26 27.6611C422.953 28.2055 426.668 26.2093 432.143 26.0278C436.249 27.2981 444.267 26.5723 447.2 28.5685C448.177 28.5685 449.155 28.5685 450.133 28.5685C452.87 29.2944 456.781 31.6536 460.301 32.9239C462.843 33.8313 464.212 33.6498 464.603 33.2868C465.776 34.0127 467.731 34.5572 470.078 34.9202L469.1 35.2831L469.491 35.8275C465.189 36.5534 472.033 38.1867 473.793 38.9126C473.793 39.2756 473.793 39.82 473.793 40.183L472.815 40.0015C473.598 40.3644 474.184 40.9088 473.989 41.6348L474.38 41.0903C476.922 41.9977 479.073 41.2718 481.615 41.9977L482.592 42.1792L482.201 41.6348C482.592 41.6348 482.983 41.6348 483.375 41.6348C484.548 39.457 491.978 40.5459 492.369 42.1792C494.911 40.5459 499.409 41.9977 504.493 41.6348C504.884 42.7236 507.621 44.1754 509.381 42.9051C508.404 42.9051 507.23 42.9051 507.622 42.3606C510.946 41.8162 512.901 44.3569 516.616 44.5384C520.136 43.631 525.416 44.3569 525.611 46.1717C520.332 47.6235 515.052 45.2643 509.968 46.5346C512.901 47.805 516.225 47.6235 518.376 49.6197C517.594 50.1641 515.834 49.9827 516.03 50.8901C516.225 52.1604 519.94 51.4345 519.549 52.7048C518.767 53.2492 517.398 53.4307 517.79 54.5196C518.376 54.5196 518.572 54.7011 518.963 54.8826C521.114 54.7011 523.069 54.3381 525.611 54.3381L526.002 54.8826L526.393 54.3381C527.958 56.5158 535.779 56.1529 541.45 56.1529L542.428 56.3343L542.819 55.7899C543.601 55.9714 543.992 56.1529 545.165 56.1529C544.383 55.7899 545.361 54.7011 545.752 53.9752C550.836 53.2493 556.897 55.9714 560.222 53.6122L561.199 53.4307L560.808 52.8863C561.395 52.8863 561.982 52.8863 562.568 52.8863C562.568 52.5234 562.568 51.9789 562.568 51.616C564.328 51.7974 564.132 51.253 565.501 51.253C565.697 52.7048 568.043 53.0678 570.39 53.4307C570.39 52.8863 570.781 52.7048 571.563 52.5233C571.563 53.0678 571.954 53.2492 572.736 53.4307C573.323 53.0678 573.323 52.3419 574.496 52.1604C577.234 53.2493 580.753 50.5271 583.491 51.616C583.882 52.3419 580.753 52.8863 582.904 53.4307C584.664 53.7937 583.882 52.7048 584.078 52.1604C587.011 52.3419 590.726 52.3419 592.486 51.253C590.139 51.616 587.988 51.0715 585.837 49.9827C583.295 49.9827 582.318 50.8901 579.776 50.8901C578.211 49.9827 575.669 49.8012 573.714 49.0753C573.714 48.5309 573.714 47.805 573.714 47.2605C570.781 47.0791 570.39 45.6273 567.066 45.6273C566.088 43.631 569.608 43.8125 570.781 42.9051L571.172 43.4495L571.563 42.9051C573.714 43.8125 577.234 42.3606 578.798 43.268C580.362 43.4495 579.189 41.9977 581.145 42.3606C577.82 41.2718 574.692 42.1792 571.563 42.7236L571.172 42.1792L570.194 41.9977C569.412 40.3644 569.021 41.0903 566.675 41.4533L565.892 40.9089L564.719 41.0903C564.524 40.9089 564.719 40.5459 564.132 40.5459C562.373 39.6385 563.35 41.4533 561.199 41.0903C559.635 40.9089 558.657 40.3644 556.311 40.5459C556.506 40.9088 557.289 41.0903 557.484 41.4533C554.16 41.4533 553.769 41.4533 551.422 41.4533C553.573 41.4533 548.88 41.0903 548.489 41.0903C548.294 41.0903 548.098 41.2718 547.903 41.2718C547.707 41.2718 547.512 41.0903 547.121 41.0903C545.947 40.9089 543.992 41.2718 542.232 41.0903C540.472 39.82 536.17 39.82 533.824 38.9126C532.651 39.2756 531.673 39.6385 530.304 39.82C529.326 39.457 529.131 38.7312 527.958 38.5497C527.958 39.2756 527.176 39.82 525.611 39.82C524.242 39.2756 522.287 39.0941 519.549 39.2756L519.158 38.7311L518.181 38.9126C515.639 38.0052 510.359 38.5497 509.186 37.0978C506.253 37.2793 504.102 36.9164 501.951 36.7349L502.342 36.1905L501.364 35.8275C503.711 35.2831 505.079 34.3757 508.013 34.9202C508.404 35.8275 508.208 35.646 509.772 36.1905C511.728 36.1905 513.292 35.6461 515.834 35.8275C515.834 35.1016 514.661 34.9201 515.834 34.1942C516.225 34.1942 517.007 34.1942 517.007 33.8313C520.527 34.5572 523.46 34.3757 523.656 36.009C526.98 34.7386 528.349 32.561 532.651 32.0165C529.522 31.6536 528.349 31.4721 526.002 31.4721C528.153 33.1054 517.398 33.2869 517.594 30.9277C519.745 30.7462 523.46 30.0203 525.416 30.5647C525.611 29.6573 529.522 30.3832 530.304 29.6573C528.935 28.5684 527.175 27.8426 524.829 27.1166L525.22 26.5722L523.851 26.3908C524.829 23.8501 518.376 25.1204 516.616 23.8501L517.007 23.3056L516.616 22.7612C519.549 22.2168 522.874 21.128 526.198 22.2168C534.215 19.3132 547.707 21.1279 552.205 24.3945C555.529 24.213 556.115 25.3019 558.853 25.3019L558.462 25.8463L558.853 26.3908C559.049 27.1167 556.115 26.2093 557.093 27.2981L556.115 27.6611L556.506 28.2055C551.814 27.8426 550.445 28.75 546.338 27.6611C546.338 28.75 549.271 29.6573 546.925 30.2018C547.903 30.2018 548.88 30.2018 549.858 30.2018L550.64 30.7462C551.031 30.2017 552.205 29.6573 553.182 29.8388L552.987 29.2944C556.115 29.1129 554.551 31.1091 556.506 31.4721C559.048 31.4721 560.808 31.8351 562.568 32.0165C562.373 33.8313 559.44 32.561 555.92 32.9239C555.92 34.0128 553.964 34.0127 554.16 35.1016C554.747 35.4645 554.747 36.1905 555.92 36.372C560.613 35.8275 566.088 36.1905 570.39 36.372C568.825 36.1905 569.021 34.9201 570.39 34.5572C573.323 34.7387 575.865 36.7349 579.385 35.4646C580.167 34.3757 577.429 35.2831 578.211 34.1942L579.189 33.8313L578.798 33.2868C580.949 33.1054 582.122 33.6498 583.686 33.8313C584.078 35.1016 580.362 35.8275 582.513 36.9164C583.882 36.009 586.033 35.4646 589.162 35.2831C589.357 35.8275 589.357 36.5534 590.922 36.5534C591.508 36.5534 591.899 36.1905 592.095 36.009C591.508 35.4645 590.139 35.2831 590.335 34.3757C592.095 33.6498 593.073 34.0128 595.81 34.0128C595.419 32.9239 598.156 33.2868 598.156 32.3794C594.246 31.6535 590.53 28.75 586.033 30.2018L585.055 30.3833C584.86 30.5647 584.86 30.9277 584.664 31.1091L585.446 31.4721C585.446 31.835 585.251 32.198 584.86 32.3794C581.535 32.5609 579.58 32.198 579.385 30.7462C580.558 30.0203 582.709 31.2906 584.273 30.3833C581.34 30.2018 578.016 28.5685 573.518 28.2055C572.15 28.7499 568.043 29.2944 566.283 28.7499C567.652 27.4796 570.39 26.7537 572.932 26.0278C572.736 27.2981 575.083 26.7537 575.865 26.3908C576.647 25.1204 573.909 25.8463 574.692 24.576C576.452 24.213 577.234 24.7575 580.167 24.576L579.776 25.1204L580.753 25.4834C582.122 26.7537 586.033 26.0278 588.575 26.0278C589.357 26.0278 590.335 26.5722 590.922 26.5722C594.637 26.7537 597.961 26.2093 601.09 26.2093C602.849 26.2093 605.391 27.2981 606.565 26.2093C606.76 25.4834 604.218 26.0278 604.805 24.939L605.196 24.576L604.805 24.213C608.129 24.213 610.475 22.2168 612.626 23.6686C612.626 23.1242 612.822 22.7612 613.213 22.3983C618.101 22.3983 617.71 24.9389 619.861 26.3908C620.839 26.0278 622.794 26.2093 623.577 25.8463C622.403 25.8463 622.208 25.4834 622.403 24.939C625.728 23.3057 631.594 24.0315 634.527 25.3019C634.527 24.7575 636.482 25.1204 636.287 24.3945C634.527 24.0315 634.527 22.5798 630.811 23.1242C631.203 21.8539 629.834 21.4909 627.878 21.4909L628.27 20.9465L627.292 20.765C627.292 20.5835 627.292 20.402 627.292 20.2206L628.27 19.8576L627.878 19.3132C633.745 20.0391 638.633 17.4984 640.002 15.8651C637.264 15.8651 635.896 16.591 634.527 17.4984C630.225 17.6799 626.705 16.954 624.359 17.8613C623.772 17.1354 621.426 17.3169 621.426 16.2281C622.794 16.0466 624.75 16.0466 624.945 15.3207C621.621 14.5948 617.906 14.0504 614.777 13.143C613.409 12.9615 613.409 13.6874 611.844 13.5059C610.671 12.0541 614.191 11.5097 615.364 12.2356C622.795 12.2356 631.789 11.1467 638.829 12.5985C639.611 12.0541 641.175 12.0541 641.762 11.6912C643.522 11.8726 644.304 12.5986 647.237 12.2356C647.823 11.3282 648.41 10.4208 649.583 9.69491C657.014 10.6023 669.333 13.143 676.763 10.2394C677.154 11.1468 675.003 12.2356 676.763 12.78C687.909 10.7838 697.1 14.0504 705.703 14.0504C707.268 15.5022 708.245 15.1392 711.765 15.3207C711.57 16.4095 710.396 17.1355 710.005 18.0428C712.352 17.4984 710.201 19.3132 711.765 19.3132C717.24 19.4947 719.391 22.3983 725.062 22.7612C729.168 22.9427 733.47 20.9464 738.945 21.4909C741.683 21.8538 743.638 22.5798 746.767 21.8538L747.158 22.3983L748.135 22.2168C748.918 22.5798 748.722 23.3057 748.722 24.0316C747.94 24.3945 746.962 24.576 746.376 24.939C747.353 25.4834 747.158 26.5722 748.135 27.1166L747.744 27.4796C749.309 27.2981 751.264 28.024 750.482 28.9314L751.655 28.7499C751.655 29.4758 752.437 30.9277 755.37 30.0203C756.153 30.5647 756.153 31.2906 757.13 31.6536C760.455 32.0165 762.214 30.3833 764.952 31.2906C765.148 30.9277 765.734 30.7462 765.539 30.0203C770.818 31.4721 773.36 29.2944 778.249 28.7499C778.444 30.0203 780.791 30.7462 777.662 31.2906C780.595 31.1092 780.986 32.198 783.724 32.198C783.919 31.2906 782.355 31.2906 782.551 30.3833C785.093 30.0203 788.612 28.5685 791.545 29.4759C790.959 29.4759 789.981 30.9277 790.959 30.7462C795.652 30.9277 797.021 29.1129 801.127 30.3833C800.54 30.3833 800.345 30.9277 801.127 30.9277L802.105 31.1091C802.3 30.7462 802.495 30.5647 802.887 30.3833C803.473 30.3833 804.451 30.2018 805.233 30.2018L804.842 29.6573C809.926 29.4758 819.117 29.8388 822.832 31.2906C823.809 31.2906 823.223 30.5647 824.592 30.7462C826.156 30.7462 825.374 32.0165 826.938 32.0165C827.916 30.9277 830.262 30.5647 829.871 28.9314C827.134 29.2944 825.96 28.5685 824.396 27.6611C827.525 26.7537 834.369 26.3907 837.693 28.024C839.453 27.6611 840.626 26.7537 843.168 27.4796C843.559 28.5685 841.017 28.024 840.821 28.7499C846.492 31.1091 853.336 30.7462 858.224 32.7424C865.264 32.9239 870.543 30.9277 877.583 30.2018C877.583 29.6573 879.147 30.0203 878.756 29.2944C876.214 27.8426 872.89 26.0278 867.219 27.1166C865.85 26.5722 861.158 25.3019 859.984 26.5722C861.744 27.4796 860.571 28.387 859.984 29.6573L859.007 29.4759L858.615 30.0203C856.856 30.2018 856.66 31.1091 854.314 30.9277C853.923 29.4759 848.839 27.8425 851.381 26.9352C847.665 27.4796 847.861 25.8463 845.319 25.6649C838.866 25.8463 835.542 24.0315 829.089 25.1204C828.893 24.0315 826.938 23.8501 825.569 23.3056C826.547 22.2168 825.765 20.2206 828.502 20.2206C828.698 22.2168 831.044 22.9427 834.564 23.3056C838.084 22.2168 839.453 23.1242 843.559 22.0353C847.079 22.9427 849.425 22.9427 851.967 24.576C855.487 23.6686 858.615 21.4909 863.504 22.9427L863.895 23.4871C864.091 23.3056 864.091 23.1242 864.286 22.9427C867.219 21.8539 870.934 22.2168 874.259 22.2168L864.873 23.3056C865.851 26.0278 873.477 24.0316 875.628 22.9427C876.41 23.3057 875.823 24.3945 877.387 24.576C883.254 22.0353 893.813 22.9427 901.439 24.0316C901.439 23.1242 901.439 22.2168 901.439 21.3094C904.958 20.765 904.958 21.6724 907.5 22.2168C907.109 22.5798 905.154 22.2168 905.154 22.7612C905.35 23.1242 905.936 23.3057 905.741 24.0316C906.523 23.6686 908.674 23.6686 909.456 24.0316C911.02 24.7575 908.478 24.576 908.869 25.6649C912.976 27.1167 919.428 24.576 914.931 22.9427C913.953 23.8501 911.411 22.9427 910.629 22.5797C911.411 21.1279 912.389 20.402 912.389 19.1317C914.931 19.4947 918.255 18.4058 920.797 18.7687C920.211 19.8576 918.646 20.5835 917.277 21.3094C918.646 21.4909 917.277 22.9427 919.037 22.9427C925.881 21.8539 930.965 24.3945 935.854 22.3983C933.312 21.8538 930.77 22.3983 927.446 21.8538C928.814 20.5835 925.099 20.5835 926.272 18.4058C929.988 18.5873 933.507 17.4984 936.44 18.4058C936.636 18.9502 935.658 18.9502 935.267 19.3132C940.156 19.3132 945.044 18.9502 949.737 19.6761C951.302 19.4946 952.475 18.0428 954.039 18.7687C955.603 19.1317 955.212 20.5835 956.972 20.9465C960.687 21.3094 961.078 20.0391 962.447 19.1317C976.917 20.0391 991.778 17.8613 1005.07 18.7687V30.0203V37.2793V89.0001H505.862H501.364H498.627H495.889H491.001H489.241H481.224H477.508H476.922H442.116H441.92H426.668H414.544H406.136H30.8954H30.6998H2.3465C3.51974 88.6371 4.49749 88.4556 6.06181 88.6371C4.10641 87.7297 2.15094 87.7297 0 87.9112V78.8374C4.10634 79.3818 8.2127 77.2041 12.1235 79.2004C12.7101 78.6559 13.4923 78.293 13.8834 77.5671C10.3637 77.7486 9.19044 76.6597 6.06181 75.9338C3.12871 76.1152 1.9554 75.3893 0 75.0264V71.7598C1.9554 71.7598 3.9108 71.9413 4.8885 71.3969C4.8885 71.0339 4.8885 70.4895 4.8885 70.1266C3.71526 70.671 1.75986 69.7636 0 69.4007Z" fill="white"/>
</svg>
