<svg width="815" height="111" viewBox="0 0 815 111" fill="none" xmlns="http://www.w3.org/2000/svg">
<path d="M662.489 1.02534L663.467 0.843848L663.076 0.299441C667.573 -0.426464 680.87 0.117987 681.848 2.47718C676.177 2.84013 667.573 2.11419 662.489 1.02534Z" fill="white"/>
<path d="M238.167 11.5511C243.252 9.91782 251.464 7.3771 258.699 8.10301C256.939 10.0992 252.246 10.6437 247.162 10.8252C245.598 11.914 239.145 14.0918 238.167 11.5511Z" fill="white"/>
<path d="M430.383 18.9916C424.908 17.7213 429.21 14.8177 429.797 12.4585C431.361 11.7326 433.121 11.0067 435.858 10.8252C438.791 13.9103 434.685 17.9028 430.383 18.9916Z" fill="white"/>
<path d="M718.609 12.2768C717.24 12.2768 716.263 12.2768 716.263 11.7323C717.24 11.7323 719.196 11.3694 718.609 12.2768Z" fill="white"/>
<path d="M245.402 14.6359C246.184 14.6359 246.184 14.2729 247.162 14.2729C249.509 15.1803 249.704 17.721 246.576 18.2654L245.598 18.0839L244.62 18.2654C245.011 17.1765 244.229 15.3618 245.402 14.6359Z" fill="white"/>
<path d="M670.897 18.0841C669.528 18.0841 668.551 18.0841 668.551 17.5396C669.137 16.9952 671.093 17.1767 670.897 18.0841Z" fill="white"/>
<path d="M775.707 18.084C776.098 18.084 776.489 18.084 776.88 18.084C776.88 18.2655 776.88 18.447 776.88 18.6284C776.489 18.6284 776.098 18.6284 775.707 18.6284C775.707 18.447 775.707 18.2655 775.707 18.084Z" fill="white"/>
<path d="M698.078 20.8064C695.144 20.625 693.971 19.5361 692.603 18.6287C695.927 17.9028 700.033 18.9917 698.078 20.8064Z" fill="white"/>
<path d="M678.132 18.9916C676.568 18.9916 675.199 18.9916 675.199 18.4472C676.177 18.6286 678.719 17.9027 678.132 18.9916Z" fill="white"/>
<path d="M655.841 18.9917C656.623 18.4472 658.969 18.8102 660.143 18.4473C661.12 19.7176 655.841 20.262 655.841 18.9917Z" fill="white"/>
<path d="M160.343 18.447C161.125 18.6284 163.471 18.084 163.276 18.8099C162.494 18.6285 160.343 18.9914 160.343 18.447Z" fill="white"/>
<path d="M713.721 22.0766C713.525 20.9877 715.481 21.1692 716.067 20.4433C714.698 19.173 711.179 21.1692 708.832 20.0803C709.419 18.2656 714.698 18.4471 717.827 18.81C718.218 20.6248 721.933 20.6248 722.715 22.2581C719.391 23.1654 716.849 22.4395 713.721 22.0766Z" fill="white"/>
<path d="M96.5967 19.3545C96.9878 19.3545 97.3788 19.3545 97.7699 19.3545C97.7699 19.536 97.7699 19.7174 97.7699 19.8989C97.3788 19.8989 96.9878 19.8989 96.5967 19.8989C96.5967 19.7174 96.5967 19.536 96.5967 19.3545Z" fill="white"/>
<path d="M344.932 19.8989C346.301 20.8063 350.212 20.4434 349.821 22.4396C346.692 23.71 341.413 20.9878 344.932 19.8989Z" fill="white"/>
<path d="M256.157 20.262C256.939 21.3509 253.224 20.4435 254.397 19.8991C254.984 19.7176 256.157 20.0806 256.157 20.262Z" fill="white"/>
<path d="M474.379 22.0768C476.335 21.8953 477.117 22.2583 476.726 23.3471C475.357 23.1657 473.988 23.1656 474.379 22.0768Z" fill="white"/>
<path d="M724.475 22.8024C725.257 22.6209 726.039 22.4395 727.408 22.4395C728.19 23.5283 724.67 23.7098 724.475 22.8024Z" fill="white"/>
<path d="M243.056 25.5249C243.056 24.799 242.86 24.0731 244.229 23.8916C244.425 24.2546 245.207 24.436 245.402 24.799C243.838 24.6175 244.229 25.5249 243.056 25.5249Z" fill="white"/>
<path d="M529.327 26.4319C525.025 26.6133 519.941 27.3393 517.203 26.0689C522.483 24.9801 534.215 23.8912 537.148 25.706C535.584 26.9763 532.064 26.2504 529.327 26.4319Z" fill="white"/>
<path d="M653.494 29.8802C653.299 28.7913 650.757 28.9728 648.606 28.9728C647.237 28.0654 647.823 27.8839 648.019 26.4321C651.539 26.4321 651.93 28.0654 655.254 28.0654C654.863 28.7913 654.081 29.3357 653.494 29.8802Z" fill="white"/>
<path d="M375.045 28.9727C374.459 28.2468 377.001 27.521 377.392 28.4283C376.414 28.4283 376.805 29.3357 375.045 28.9727Z" fill="white"/>
<path d="M385.8 28.6099C384.822 28.7914 384.236 29.1543 383.454 29.1543C382.867 28.4284 385.409 27.884 385.8 28.6099Z" fill="white"/>
<path d="M139.615 30.243L138.833 29.88C138.833 29.5171 138.833 28.9727 138.833 28.6097C145.677 28.4283 153.303 28.4283 159.951 28.6097C161.516 28.6097 165.035 28.2468 165.426 29.5171C156.823 30.606 148.415 29.5171 139.42 30.7874L139.615 30.243Z" fill="white"/>
<path d="M128.47 32.602C128.47 31.5131 134.336 30.9687 136.878 30.4243V30.9687H138.051C137.073 33.1464 128.274 34.9612 128.47 32.602Z" fill="white"/>
<path d="M415.914 28.9724C417.282 29.1539 417.282 28.428 418.847 28.6095C418.847 28.9724 419.042 29.3354 419.433 29.5168C418.651 30.0613 415.522 30.0612 415.914 28.9724Z" fill="white"/>
<path d="M405.745 29.8801L406.723 29.5172L406.332 28.9727C408.092 28.7913 408.092 29.5172 409.852 29.3357C410.047 30.606 406.918 30.606 405.745 29.8801Z" fill="white"/>
<path d="M411.22 42.7649C410.438 42.9464 408.091 42.402 408.287 43.1279C408.483 43.4908 409.069 43.6723 408.874 44.3982C412.002 44.2167 414.349 44.3982 415.522 45.3055C412.002 45.85 411.22 47.6647 409.46 48.9351C403.398 50.7498 399.879 47.8462 394.99 47.6648C389.124 47.4833 386.778 48.9351 381.694 48.9351C377.001 48.7536 374.654 49.1166 371.525 48.5721C365.659 52.7461 353.731 50.024 343.172 50.3869C341.217 47.4833 338.284 45.3056 330.462 45.487C330.462 44.0352 332.222 43.4908 331.635 41.8575C328.311 40.9501 327.333 42.402 322.64 42.2205C321.467 41.4946 320.098 40.7687 317.752 40.5872L318.143 40.0427L317.165 39.8613C317.165 39.4983 316.774 39.4983 316.579 39.3168L316.97 38.7724L315.992 38.591C315.992 38.0465 317.948 38.4094 318.339 38.0465C320.294 38.9539 326.356 40.7687 329.093 39.3168C329.093 36.9577 324.4 37.1391 323.618 35.3243C325.574 34.5984 327.529 35.6873 330.267 35.3243C330.462 35.1429 330.853 34.9614 331.44 34.9614C331.831 32.9652 333.786 30.9689 339.261 30.0615C341.021 29.6986 343.563 30.0616 345.91 29.6986C346.887 29.5171 347.279 28.9727 347.67 28.7912C352.558 27.7024 356.469 29.5171 358.424 30.4245C359.598 29.8801 360.575 29.3356 362.726 29.1542C364.29 29.8801 367.028 29.8801 369.961 29.6986C372.699 30.4245 373.676 32.0578 377.783 32.2393C380.911 36.0503 386.387 38.591 396.555 38.7724C398.119 39.1354 398.51 40.0428 399.488 40.5872C403.203 41.1316 409.265 40.5872 411.611 41.8575C415.913 42.039 420.215 42.2204 422.366 43.4908C418.259 44.2167 415.326 44.0352 411.22 42.7649Z" fill="white"/>
<path d="M308.171 41.3134C308.366 40.2245 306.411 40.406 305.824 39.6801C306.802 38.5912 312.081 38.2282 313.646 39.3171L313.255 39.6801L312.864 40.043C311.69 40.7689 310.126 41.1319 308.171 41.3134Z" fill="white"/>
<path d="M673.244 31.1504C670.702 32.0577 668.551 30.6059 668.355 29.3356C670.702 28.4282 673.244 29.6985 673.244 31.1504Z" fill="white"/>
<path d="M397.337 28.9727C397.728 28.9727 398.119 28.9727 398.51 28.9727C398.51 29.1541 398.51 29.3356 398.51 29.5171C398.119 29.5171 397.728 29.5171 397.337 29.5171C397.337 29.3356 397.337 29.1541 397.337 28.9727Z" fill="white"/>
<path d="M510.555 29.5168C514.465 29.1539 511.923 30.4242 510.555 29.5168V29.5168Z" fill="white"/>
<path d="M399.096 31.6951C397.728 32.784 392.839 32.0581 391.861 31.1507C393.426 30.7878 399.487 29.6989 399.683 31.5137L400.661 31.6951C400.074 31.6951 399.487 31.5137 398.901 31.3322L399.096 31.6951Z" fill="white"/>
<path d="M230.346 30.4243C231.519 30.6058 234.061 30.0614 233.279 30.9687C231.91 31.1502 230.932 30.9688 230.346 30.4243Z" fill="white"/>
<path d="M218.223 30.7874C219.591 30.6059 220.569 30.243 222.525 30.4245C222.72 31.8763 219.005 31.3318 218.223 30.7874Z" fill="white"/>
<path d="M720.955 30.7873C724.866 30.4244 722.324 31.6947 720.955 30.7873V30.7873Z" fill="white"/>
<path d="M417.673 32.9651C415.718 32.9651 413.176 33.1465 412.198 32.6021L412.589 32.0577L412.98 31.5133C413.567 30.9689 414.154 30.4244 415.913 30.6059C416.5 31.5133 417.673 32.0577 417.673 32.9651Z" fill="white"/>
<path d="M208.055 31.1506C210.206 31.332 212.748 30.2432 213.53 31.5135C211.77 31.8765 209.423 31.695 208.055 31.1506Z" fill="white"/>
<path d="M418.455 32.2393C419.824 32.2393 420.802 32.2392 420.802 32.7837C419.433 32.9651 418.455 32.7837 418.455 32.2393Z" fill="white"/>
<path d="M431.557 33.8724C430.97 33.8724 430.579 34.2353 430.383 34.4168C428.624 33.5094 423.344 34.2353 423.148 32.6021C426.473 32.7835 431.361 32.0576 431.557 33.8724Z" fill="white"/>
<path d="M523.264 34.78C520.918 34.78 518.962 34.78 517.789 34.2356L518.18 33.6911L517.789 33.1467C519.94 32.4208 524.437 32.7838 523.264 34.78Z" fill="white"/>
<path d="M723.302 34.4171C722.324 34.9615 719.195 34.9616 719.586 33.8727C721.346 33.8727 723.302 33.6912 723.302 34.4171Z" fill="white"/>
<path d="M297.807 35.1432C296.634 33.3284 303.478 33.5099 303.869 34.5987C302.891 35.1432 298.98 35.3247 297.807 35.1432Z" fill="white"/>
<path d="M576.842 35.6875C576.06 35.6875 575.278 35.6875 574.496 35.6875C575.669 34.9616 573.323 34.2357 575.669 34.0542C575.083 35.1431 576.647 35.143 576.842 35.6875Z" fill="white"/>
<path d="M414.153 34.4168C414.545 35.6871 411.22 35.6871 411.807 34.4168C413.371 34.4168 412.98 33.8723 414.153 34.4168Z" fill="white"/>
<path d="M594.441 35.3247C593.464 35.3247 591.508 35.6877 592.095 34.7803C593.268 34.7803 594.246 34.7803 594.441 35.3247Z" fill="white"/>
<path d="M222.524 39.68C223.111 40.9503 221.155 40.9503 219.005 40.9503C218.418 39.6799 221.156 39.1355 222.524 39.68Z" fill="white"/>
<path d="M298.98 42.5835C296.242 42.7649 297.025 40.9502 298.98 40.9502C300.153 41.4946 299.175 41.6761 298.98 42.5835Z" fill="white"/>
<path d="M488.85 42.2204C488.263 42.2204 487.676 42.2204 487.09 42.2204C487.09 41.8574 487.09 41.6759 487.09 41.313C487.481 41.313 487.872 41.313 488.263 41.313C488.263 41.6759 489.045 41.6759 488.85 42.2204Z" fill="white"/>
<path d="M303.282 42.2207C304.064 42.5837 304.064 43.3095 302.696 43.491C302.696 42.9466 302.5 42.2207 303.282 42.2207Z" fill="white"/>
<path d="M292.919 43.4909C292.919 43.1279 292.919 42.9464 292.919 42.5835C293.31 42.5835 293.701 42.5835 294.092 42.5835C294.092 42.9464 294.874 42.9464 294.679 43.4909C294.288 43.4909 293.701 43.4909 292.919 43.4909Z" fill="white"/>
<path d="M616.146 42.7651C616.341 43.6725 615.364 44.0355 614.386 44.3984C614.19 43.854 613.017 44.0355 612.039 44.0355C611.844 42.5837 614.581 43.854 616.146 42.7651Z" fill="white"/>
<path d="M610.084 42.7651C610.084 43.1281 610.28 43.491 610.671 43.6725C610.084 43.6725 609.498 43.6725 608.911 43.6725C608.715 43.1281 609.302 42.9466 610.084 42.7651Z" fill="white"/>
<path d="M303.282 44.9429C302.109 46.5762 294.874 46.0317 294.874 44.3984C297.807 43.6725 301.327 43.854 303.282 44.9429Z" fill="white"/>
<path d="M561.199 45.6683C561.199 44.9424 562.177 44.7609 562.373 44.035C564.719 43.8535 566.088 44.2165 566.674 44.9424C564.523 45.1239 563.741 45.8498 561.199 45.6683Z" fill="white"/>
<path d="M485.33 44.7609C484.352 44.7609 483.766 44.5794 483.57 44.2165C484.548 44.035 484.939 44.2165 485.33 44.7609Z" fill="white"/>
<path d="M604.609 44.3979C605 44.3979 605.391 44.3979 605.783 44.3979C605.783 44.5794 605.783 44.7609 605.783 44.9424C605.391 44.9424 605 44.9424 604.609 44.9424C604.609 44.7609 604.609 44.5794 604.609 44.3979Z" fill="white"/>
<path d="M468.318 44.3983C469.491 44.5798 472.424 43.8539 471.838 44.9428C471.447 45.6687 467.536 45.4872 468.318 44.3983Z" fill="white"/>
<path d="M325.574 52.7459C322.641 52.2015 322.641 53.1089 320.099 53.1089C316.384 51.8386 313.842 49.8423 309.344 49.1164C308.953 46.9387 311.886 46.5758 313.06 45.124C318.73 44.0351 322.25 44.9425 325.77 46.3943C326.943 46.3943 328.116 46.3943 329.485 46.3943C329.68 46.9387 330.854 47.1202 330.658 48.0276C330.854 48.9349 328.507 48.3905 328.312 48.9349C329.485 50.9312 326.356 50.9312 325.574 52.7459Z" fill="white"/>
<path d="M556.311 44.9429C556.702 44.9429 557.093 44.9429 557.484 44.9429C557.484 45.1243 557.484 45.3058 557.484 45.4873C557.093 45.4873 556.702 45.4873 556.311 45.4873C556.311 45.3058 556.311 45.1243 556.311 44.9429Z" fill="white"/>
<path d="M477.509 45.3058C478.291 45.1243 479.073 44.9429 480.442 44.9429C481.42 45.8503 477.313 45.8502 477.509 45.3058Z" fill="white"/>
<path d="M584.078 45.8502C585.642 44.3983 590.922 45.8501 591.313 47.1205C587.793 47.3019 585.251 47.4834 584.078 45.8502Z" fill="white"/>
<path d="M574.496 46.2129C574.496 46.0314 574.496 45.8499 574.496 45.6685C575.083 45.6685 575.669 45.6685 576.256 45.6685C576.256 45.8499 576.256 46.0314 576.256 46.2129C575.669 46.2129 575.083 46.2129 574.496 46.2129Z" fill="white"/>
<path d="M491.392 45.8501C491.392 46.2131 492.174 46.2131 491.978 46.7575C491.587 46.7575 491.196 46.7575 490.805 46.7575C490.023 46.3945 490.023 46.0316 491.392 45.8501Z" fill="white"/>
<path d="M594.441 47.8462C594.637 47.1203 595.028 46.5758 596.201 46.2129C596.397 46.9388 599.134 46.3944 598.548 47.4832C598.157 48.0277 595.419 48.2092 594.441 47.8462Z" fill="white"/>
<path d="M498.627 47.1201C497.649 47.846 494.521 47.846 494.325 46.5757C495.694 45.8498 498.236 46.3942 498.627 47.1201Z" fill="white"/>
<path d="M563.546 46.5757C565.11 46.7572 566.87 46.9386 567.848 47.4831C566.088 47.3016 562.764 48.0275 563.546 46.5757Z" fill="white"/>
<path d="M509.381 46.5757C511.141 48.0275 506.643 48.5719 505.079 47.4831L506.057 47.1201L505.666 46.5757C507.034 46.5757 508.208 46.5757 509.381 46.5757Z" fill="white"/>
<path d="M562.959 49.6609C562.959 49.2979 562.959 48.7535 562.959 48.3905C564.328 48.209 565.305 48.3905 565.892 48.7535C566.283 49.6609 564.719 49.6609 562.959 49.6609Z" fill="white"/>
<path d="M331.636 48.9351C333.982 48.9351 335.742 49.1165 336.524 49.8424C333.982 50.0239 332.027 49.8424 331.636 48.9351Z" fill="white"/>
<path d="M481.615 49.8423C480.833 49.8423 480.051 49.8423 479.269 49.8423C479.269 49.6608 479.269 49.4793 479.269 49.2979C480.051 49.2979 480.833 49.2979 481.615 49.2979C481.615 49.4793 481.615 49.6608 481.615 49.8423Z" fill="white"/>
<path d="M296.634 50.5682C296.634 50.2053 296.634 49.6608 296.634 49.2979C297.22 49.2979 297.807 49.2979 298.394 49.2979C298.589 50.0238 298.198 50.5682 296.634 50.5682Z" fill="white"/>
<path d="M409.264 51.4758C408.091 51.4758 407.309 51.2943 406.918 50.9313C408.287 50.7499 409.264 50.9314 409.264 51.4758Z" fill="white"/>
<path d="M490.609 51.8387C492.174 51.6572 493.347 51.2942 494.325 52.2016C493.347 51.8387 490.805 52.3831 490.609 51.8387Z" fill="white"/>
<path d="M762.019 51.8385C762.019 52.2015 762.214 52.5644 762.605 52.7459C761.236 52.5644 761.236 53.2903 759.672 53.1089C759.281 52.02 760.063 51.657 762.019 51.8385Z" fill="white"/>
<path d="M512.315 52.3829C512.51 52.9273 511.728 53.1087 511.728 53.6532C510.555 53.6532 509.382 53.6532 508.209 53.6532C507.035 52.0199 510.751 51.657 512.315 52.3829Z" fill="white"/>
<path d="M572.149 52.9278C572.931 54.0167 569.216 53.1093 570.389 52.5649C570.78 52.3834 571.954 52.9278 572.149 52.9278Z" fill="white"/>
<path d="M379.739 52.7461C381.499 52.7461 381.89 53.472 382.672 54.0165C381.108 54.7424 379.348 53.835 379.739 52.7461Z" fill="white"/>
<path d="M370.158 54.9239C369.962 53.6536 370.744 52.9277 373.091 53.1091C373.677 53.6536 374.264 54.3795 374.851 54.9239L374.459 55.2868L374.851 55.6498C373.677 55.1054 371.331 55.2869 370.158 54.9239Z" fill="white"/>
<path d="M361.162 53.6533C360.771 53.6533 360.38 53.6533 359.989 53.6533C359.989 53.4718 359.989 53.2904 359.989 53.1089C360.38 53.1089 360.771 53.1089 361.162 53.1089C361.162 53.2904 361.162 53.4718 361.162 53.6533Z" fill="white"/>
<path d="M520.136 55.4684C519.158 55.4684 518.572 55.2869 518.376 54.924C519.354 54.924 520.527 54.7425 520.136 55.4684Z" fill="white"/>
<path d="M567.848 57.1017C567.066 57.2832 566.675 57.4647 565.501 57.4647C564.524 56.9202 564.915 55.8314 566.088 55.6499C565.501 56.5573 568.435 55.8314 567.848 57.1017Z" fill="white"/>
<path d="M365.855 58.1905C366.833 59.0979 362.726 58.9164 362.922 58.5535C364.291 58.735 364.291 58.009 365.855 58.1905Z" fill="white"/>
<path d="M364.682 61.2754C364.095 61.2754 363.508 61.2754 362.922 61.2754C362.922 61.0939 362.922 60.9124 362.922 60.731C363.508 60.731 364.095 60.731 364.682 60.731C364.682 60.9124 364.682 61.0939 364.682 61.2754Z" fill="white"/>
<path d="M515.443 63.8163C517.79 62.7274 516.812 64.9051 515.443 63.8163V63.8163Z" fill="white"/>
<path d="M526.784 67.6273C527.762 67.6273 527.175 66.9014 528.544 67.0828C529.131 67.6273 527.175 68.3532 526.784 67.6273Z" fill="white"/>
<path d="M385.8 69.0787C384.822 69.0787 384.236 68.8973 384.04 68.5343C385.018 68.5343 386.191 68.3528 385.8 69.0787Z" fill="white"/>
<path d="M525.611 69.6232C525.611 69.2602 525.611 69.0788 525.611 68.7158C526.98 68.7158 527.958 68.7158 527.958 69.2602C527.176 69.4417 526.98 69.8047 525.611 69.6232Z" fill="white"/>
<path d="M397.337 71.6198C396.163 71.6198 396.554 72.5273 394.99 72.1643C394.795 71.2569 396.945 70.531 397.337 71.6198Z" fill="white"/>
<path d="M166.404 18.4473C167.186 18.4473 168.751 18.4473 167.577 18.8102C166.013 19.1732 165.622 17.5399 166.404 18.4473Z" fill="white"/>
<path d="M547.512 63.4531C547.904 63.6353 547.119 63.6353 547.512 63.4531V63.4531Z" fill="white"/>
<path d="M0 91.4007V79.4232C3.71526 79.4232 7.82162 79.4232 12.1235 80.3306C11.5369 79.9676 11.3414 79.4232 11.5369 78.6973C12.9057 78.5158 13.8834 78.1529 15.8388 78.3343C16.621 79.7862 18.1853 79.9677 16.4254 81.4195C17.4031 81.7824 20.7273 82.6898 21.3139 81.4195C20.7273 81.4195 20.1406 81.4195 19.554 81.4195C19.1629 80.1491 22.0961 79.9676 20.7273 79.2417C18.1853 77.9714 25.0292 76.8825 25.0292 74.8863C22.8783 73.616 18.1852 73.616 16.6209 72.1642L17.5986 71.8012L17.2076 71.2568C21.9006 71.6197 27.1801 73.253 31.6775 71.8012C35.7838 72.7086 39.108 73.9789 44.9742 73.9789C44.3875 73.0715 45.9519 73.0716 46.1475 72.3456C48.2984 72.7086 52.7959 72.5271 53.3825 71.0753C51.6226 71.0753 49.2761 71.2568 49.0806 70.5309L50.0583 70.1679L49.6672 69.6235C50.6449 68.8976 54.9467 69.8049 55.7289 69.079C54.9467 67.9902 53.7735 67.2643 52.2092 66.5384C47.5162 66.9013 45.7563 64.7236 41.4545 63.9977C41.0634 62.3644 40.2813 60.9126 35.9794 61.2756C35.9794 60.5497 35.9794 59.8238 36.566 59.4608C39.3035 60.0052 40.2813 59.6423 42.6278 60.0052C41.0635 57.646 32.4597 58.5534 29.9177 60.0052C27.7668 59.8238 23.4648 60.5497 23.8559 59.0978C25.4202 59.0978 26.789 58.9164 27.5712 58.5534C25.6158 57.8275 24.638 56.5572 21.5094 56.3757C21.5094 57.1016 21.5094 57.8275 20.9228 58.1905C19.7495 58.1905 18.5763 58.1905 17.4031 58.1905C17.7942 59.8238 13.8834 59.4608 14.47 60.3682C13.8834 59.4608 11.7324 59.2794 10.1681 58.7349C10.7547 57.6461 13.6879 57.646 11.928 56.1942C14.6656 55.2868 17.9898 54.3795 22.0961 54.9239C24.4426 54.0165 25.2246 53.1091 29.331 53.6536L28.94 54.198L29.9177 54.0165C32.0686 54.9239 34.2195 53.6536 37.1526 53.1091C39.8901 52.5647 41.259 53.4721 40.6724 51.8388L41.6501 51.4759L41.259 50.9314C43.9965 50.9314 47.3206 51.1129 47.9073 50.024L48.885 49.8425L48.494 49.2981C56.9022 49.2981 64.7238 46.3945 71.9588 47.6649L70.9811 48.0278L74.5008 48.2093C77.0428 48.2093 79.3893 48.0278 81.7358 48.5722L81.3446 48.0278C83.1045 47.8463 84.8643 47.4834 85.0598 46.3945C82.7134 46.0315 81.3446 46.0315 78.9981 46.3945C79.5848 45.4871 77.0427 46.0316 77.2382 45.1242L78.2159 44.9427C77.6293 44.9427 77.2383 44.9427 76.6516 44.7612C76.2606 44.5798 76.0651 44.2168 75.8696 43.8538L75.4785 44.3983C73.132 43.8538 73.132 42.0391 70.59 41.6761C67.8524 41.6761 63.9416 42.765 62.7684 42.5835C65.5059 40.7687 58.662 39.3169 54.9468 38.954C54.7512 38.2281 54.9467 37.6836 55.5334 37.3207C54.5557 36.9577 52.9913 36.9577 52.6003 36.4133L52.9914 35.8689L52.0137 35.6874C63.7461 34.9615 76.0651 33.6912 85.2554 36.5948C87.6019 35.6874 89.7528 36.0503 91.9037 36.2318C91.7082 35.3244 93.2726 35.3244 93.077 34.4171C90.1439 32.6023 83.6911 34.2356 79.7804 32.6023L80.7581 32.2394L80.3669 31.6949C88.1885 31.6949 94.2502 31.6949 102.658 31.332C103.245 30.969 103.245 30.2431 103.832 29.6987C101.094 28.4284 98.5521 27.158 97.7699 24.7988L98.7476 24.6173L99.1387 24.0729C102.072 24.6174 104.418 27.158 108.134 26.2506C106.765 24.7988 103.049 24.4359 102.658 22.6211C106.96 23.5285 112.631 23.5285 114.782 25.3432C115.369 24.7988 116.737 24.9803 117.715 24.7988C117.715 25.8877 119.475 26.0692 118.888 27.3395L117.911 27.521L118.302 28.0654C116.346 28.4283 117.52 26.9765 115.955 27.158C113.804 27.7024 111.849 27.8839 109.307 27.521C111.262 29.5172 114.195 30.7875 119.475 30.969C120.453 32.6023 117.911 32.6023 118.302 34.0541C120.257 34.2356 122.212 34.2356 122.604 35.3244C119.67 36.5948 114.586 34.0541 110.48 35.6874C109.307 35.3245 108.134 35.143 106.765 34.78C105.983 35.3245 103.636 34.9615 103.832 36.0504C104.223 37.1392 105.983 37.5022 107.351 38.2281C116.542 37.8651 122.212 40.4058 129.056 39.1354C128.861 38.4095 129.056 37.8651 129.643 37.5022C134.727 37.8651 137.465 39.4984 142.353 40.0428C142.94 38.954 144.504 38.5911 146.068 37.8651C147.437 38.0466 148.415 38.4095 150.37 38.2281C151.152 40.2243 154.281 40.9502 159.365 40.7687C159.365 40.4058 159.561 40.0428 159.952 39.8613C167.187 39.6799 168.164 42.765 174.422 43.3094C174.422 44.0353 174.813 44.5798 175.595 44.9427C180.092 44.9427 189.283 43.4909 193.584 45.4871C201.21 44.2168 214.312 46.0316 221.938 44.9427C223.893 44.5798 226.435 44.9427 229.759 44.5797C229.564 43.6724 231.324 43.6724 231.519 42.9465C230.15 42.402 230.15 41.1317 230.346 39.8613C232.301 39.8613 235.43 40.9502 236.994 40.2243C236.212 38.2281 232.106 38.954 229.173 38.954C225.262 38.954 221.351 37.5022 219.005 38.0466C219.396 36.9577 221.547 36.9578 220.178 35.8689C221.547 35.8689 222.524 35.8689 222.524 35.3244C221.938 34.5985 220.373 34.4171 220.765 33.1468C228.391 31.1505 236.212 34.5986 243.643 34.9615C244.816 34.9615 244.425 34.4171 245.989 34.4171C247.358 34.4171 248.531 35.143 248.922 34.9615C250.291 34.78 250.878 33.5097 252.638 34.0541C254.202 35.3245 261.437 35.3245 264.174 34.0541C262.415 31.8764 254.788 34.5986 253.42 32.4209C249.118 33.8727 246.38 31.6949 243.252 30.7875L243.643 30.2431L244.034 29.6987C253.224 26.2507 261.241 32.6023 268.085 31.332C267.107 30.6061 264.956 30.2431 262.023 30.4246C259.872 28.6098 258.699 26.0692 254.202 25.5247C254.202 24.9803 254.202 24.4359 254.202 23.8915C259.286 25.1618 262.806 26.4321 269.845 26.0692C271.8 26.4321 270.823 28.4284 273.365 28.6098C273.951 28.6098 274.342 28.2469 274.538 28.0654C274.734 26.6136 271.996 26.6136 272.778 24.9803C278.84 25.3433 285.097 28.4284 288.421 31.1505C284.902 30.7876 283.337 31.6949 282.946 32.9653C284.119 33.1467 285.488 33.1467 285.293 33.8726C284.706 34.4171 284.119 34.9615 282.36 34.78C279.231 32.2394 271.996 34.7801 267.303 34.2356C267.694 37.1392 280.013 35.3244 280.013 37.3207C283.337 37.3207 291.354 37.1392 295.656 38.2281L295.265 38.7725L295.656 39.3169C295.265 39.8614 292.332 39.3169 291.941 39.8613C290.963 40.4058 292.528 40.9502 291.941 42.0391C290.963 42.5835 289.595 42.9465 288.421 43.3094C290.377 43.3094 291.354 43.8538 293.896 43.6724C294.092 46.213 289.595 46.3945 287.835 48.0278C288.617 48.0278 289.595 48.0278 289.595 48.3908L288.617 48.7537L289.008 49.2981C288.03 50.024 291.159 51.1129 291.354 52.0203C293.701 52.2018 293.896 51.2944 295.656 51.1129C297.807 52.3832 302.305 52.3832 304.064 53.835C303.282 54.3795 302.5 54.7424 301.718 55.1054C303.478 55.6498 307.78 55.4684 309.54 55.1054L309.149 55.6498L310.126 55.8313C309.54 56.5572 312.082 56.9201 311.886 56.3757C311.104 56.3757 311.299 55.8313 310.713 55.8313L311.104 55.2868L310.713 54.7424C311.691 53.835 313.45 54.9239 315.015 54.7424C315.797 55.8313 313.059 54.9239 313.841 56.0128C315.21 56.3757 315.797 56.0128 317.557 56.5572C319.317 55.6498 321.468 54.7424 324.205 54.3794C331.245 56.3757 340.435 58.372 348.843 58.7349C347.474 60.1867 348.061 61.2756 350.016 62.3645C350.407 62.0015 349.234 60.7311 350.603 60.7311C350.799 61.457 354.514 61.0941 356.078 62.0015C356.665 61.0941 359.793 61.6385 360.967 61.0941C361.162 61.6385 359.989 61.82 360.967 62.0015C365.464 62.3644 368.202 61.0941 371.721 61.4571C370.939 63.2718 379.152 61.457 381.889 62.7274C381.889 63.4533 380.912 63.6348 381.303 64.5421C376.61 64.5421 373.481 66.9013 369.179 66.1754L369.57 65.631L369.179 65.0866C368.593 64.5422 367.224 64.3607 365.464 64.5421C365.464 64.9051 366.442 64.9051 366.637 65.0866L366.051 65.631L366.637 66.1754C366.051 66.9013 362.922 65.631 361.749 66.5384V66.1754H361.162C360.38 64.9051 358.816 66.5384 361.162 66.5384L360.771 67.0828L361.749 66.9014C363.704 69.442 374.459 68.8976 375.046 71.2568C377.196 70.7124 378.37 69.8049 379.934 69.079C381.303 70.8938 385.214 69.8049 385.996 71.6197C385.8 70.8938 387.169 70.8938 388.342 70.7123C392.253 71.4382 395.186 72.7086 399.879 73.253C399.292 75.0678 404.963 75.7937 405.941 74.1604C404.181 74.3419 404.181 73.616 402.421 73.7974C402.421 71.9827 405.55 71.9827 407.896 71.2568C410.047 71.6197 409.265 73.4345 412.785 73.0715C412.589 72.5271 413.371 72.3456 413.371 71.8012L414.349 71.9827L413.762 70.7123L413.371 71.2568C411.22 70.1679 407.896 69.6235 407.31 67.6273C404.181 68.1717 405.55 66.5384 403.79 66.3569C402.225 66.9013 400.661 67.4458 398.315 67.6273C397.533 67.4458 398.315 66.3569 397.141 66.3569C395.773 66.9013 392.644 66.5384 390.493 66.7199C389.32 66.1754 389.515 64.9051 388.147 64.5421C386.387 64.5421 384.431 64.5421 384.627 63.6348C384.627 62.5459 388.342 63.4533 388.147 62.3645C386.778 62.0015 384.822 61.82 384.627 60.7311C387.56 60.9126 388.538 60.1867 391.275 60.3682C391.08 59.2793 392.057 58.9164 393.622 58.7349C395.382 60.0053 398.315 62.3644 402.03 62.183C403.399 62.183 404.376 61.0941 406.332 60.9126C404.572 60.5497 403.985 59.6423 400.857 60.0052C402.421 58.5534 399.097 58.1905 399.097 56.5572C401.443 56.0128 403.399 56.3757 405.159 56.0128C401.443 54.7424 393.622 55.6498 394.404 58.5534C388.342 58.372 384.431 58.7349 382.867 56.0128C384.04 55.1054 387.364 55.6498 389.515 56.0128C390.493 55.6498 390.102 54.3794 390.102 53.4721C393.622 52.5647 396.359 54.0165 399.683 54.0165C400.857 53.4721 400.661 52.3833 402.617 52.3833C409.656 54.198 412.98 50.5685 418.26 49.6611C422.953 50.2055 426.668 48.2093 432.143 48.0278C436.249 49.2981 444.267 48.5723 447.2 50.5685C448.177 50.5685 449.155 50.5685 450.133 50.5685C452.87 51.2944 456.781 53.6536 460.301 54.9239C462.843 55.8313 464.212 55.6498 464.603 55.2868C465.776 56.0127 467.731 56.5572 470.078 56.9202L469.1 57.2831L469.491 57.8275C465.189 58.5534 472.033 60.1867 473.793 60.9126C473.793 61.2756 473.793 61.82 473.793 62.183L472.815 62.0015C473.598 62.3644 474.184 62.9088 473.989 63.6348L474.38 63.0903C476.922 63.9977 479.073 63.2718 481.615 63.9977L482.592 64.1792L482.201 63.6348C482.592 63.6348 482.983 63.6348 483.375 63.6348C484.548 61.457 491.978 62.5459 492.369 64.1792C494.911 62.5459 499.409 63.9977 504.493 63.6348C504.884 64.7236 507.621 66.1754 509.381 64.9051C508.404 64.9051 507.23 64.9051 507.622 64.3606C510.946 63.8162 512.901 66.3569 516.616 66.5384C520.136 65.631 525.416 66.3569 525.611 68.1717C520.332 69.6235 515.052 67.2643 509.968 68.5346C512.901 69.805 516.225 69.6235 518.376 71.6197C517.594 72.1641 515.834 71.9827 516.03 72.8901C516.225 74.1604 519.94 73.4345 519.549 74.7048C518.767 75.2492 517.399 75.4307 517.79 76.5196C518.376 76.5196 518.572 76.7011 518.963 76.8826C521.114 76.7011 523.069 76.3381 525.611 76.3381L526.002 76.8826L526.393 76.3381C527.958 78.5158 535.779 78.1529 541.45 78.1529L542.428 78.3343L542.819 77.7899C543.601 77.9714 543.992 78.1529 545.165 78.1529C544.383 77.7899 545.361 76.7011 545.752 75.9752C550.836 75.2493 556.897 77.9714 560.222 75.6122L561.199 75.4307L560.808 74.8863C561.395 74.8863 561.982 74.8863 562.568 74.8863C562.568 74.5234 562.568 73.9789 562.568 73.616C564.328 73.7974 564.132 73.253 565.501 73.253C565.697 74.7048 568.043 75.0678 570.39 75.4307C570.39 74.8863 570.781 74.7048 571.563 74.5233C571.563 75.0678 571.954 75.2492 572.736 75.4307C573.323 75.0678 573.323 74.3419 574.496 74.1604C577.234 75.2493 580.753 72.5271 583.491 73.616C583.882 74.3419 580.753 74.8863 582.904 75.4307C584.664 75.7937 583.882 74.7048 584.078 74.1604C587.011 74.3419 590.726 74.3419 592.486 73.253C590.139 73.616 587.988 73.0715 585.837 71.9827C583.295 71.9827 582.318 72.8901 579.776 72.8901C578.211 71.9827 575.669 71.8012 573.714 71.0753C573.714 70.5309 573.714 69.805 573.714 69.2605C570.781 69.0791 570.39 67.6273 567.066 67.6273C566.088 65.631 569.608 65.8125 570.781 64.9051L571.172 65.4495L571.563 64.9051C573.714 65.8125 577.234 64.3606 578.798 65.268C580.362 65.4495 579.189 63.9977 581.145 64.3606C577.82 63.2718 574.692 64.1792 571.563 64.7236L571.172 64.1792L570.194 63.9977C569.412 62.3644 569.021 63.0903 566.675 63.4533L565.892 62.9089L564.719 63.0903C564.524 62.9089 564.719 62.5459 564.132 62.5459C562.373 61.6385 563.35 63.4533 561.199 63.0903C559.635 62.9089 558.657 62.3644 556.311 62.5459C556.506 62.9088 557.289 63.0903 557.484 63.4533C554.16 63.4533 553.769 63.4533 551.422 63.4533C553.573 63.4533 548.88 63.0903 548.489 63.0903C548.294 63.0903 548.098 63.2718 547.903 63.2718C547.707 63.2718 547.512 63.0903 547.121 63.0903C545.947 62.9089 543.992 63.2718 542.232 63.0903C540.472 61.82 536.17 61.82 533.824 60.9126C532.651 61.2756 531.673 61.6385 530.304 61.82C529.326 61.457 529.131 60.7312 527.958 60.5497C527.958 61.2756 527.176 61.82 525.611 61.82C524.242 61.2756 522.287 61.0941 519.549 61.2756L519.158 60.7311L518.181 60.9126C515.639 60.0052 510.359 60.5497 509.186 59.0978C506.253 59.2793 504.102 58.9164 501.951 58.7349L502.342 58.1905L501.364 57.8275C503.711 57.2831 505.08 56.3757 508.013 56.9202C508.404 57.8275 508.208 57.646 509.772 58.1905C511.728 58.1905 513.292 57.6461 515.834 57.8275C515.834 57.1016 514.661 56.9201 515.834 56.1942C516.225 56.1942 517.007 56.1942 517.007 55.8313C520.527 56.5572 523.46 56.3757 523.656 58.009C526.98 56.7386 528.349 54.561 532.651 54.0165C529.522 53.6536 528.349 53.4721 526.002 53.4721C528.153 55.1054 517.398 55.2869 517.594 52.9277C519.745 52.7462 523.46 52.0203 525.416 52.5647C525.611 51.6573 529.522 52.3832 530.304 51.6573C528.935 50.5684 527.175 49.8426 524.829 49.1166L525.22 48.5722L523.851 48.3908C524.829 45.8501 518.376 47.1204 516.616 45.8501L517.007 45.3056L516.616 44.7612C519.549 44.2168 522.874 43.128 526.198 44.2168C534.215 41.3132 547.707 43.1279 552.205 46.3945C555.529 46.213 556.115 47.3019 558.853 47.3019L558.462 47.8463L558.853 48.3908C559.049 49.1167 556.115 48.2093 557.093 49.2981L556.115 49.6611L556.506 50.2055C551.814 49.8426 550.445 50.75 546.338 49.6611C546.338 50.75 549.271 51.6573 546.925 52.2018C547.903 52.2018 548.88 52.2018 549.858 52.2018L550.64 52.7462C551.031 52.2017 552.205 51.6573 553.182 51.8388L552.987 51.2944C556.115 51.1129 554.551 53.1091 556.506 53.4721C559.048 53.4721 560.808 53.8351 562.568 54.0165C562.373 55.8313 559.44 54.561 555.92 54.9239C555.92 56.0128 553.964 56.0127 554.16 57.1016C554.747 57.4645 554.747 58.1905 555.92 58.372C560.613 57.8275 566.088 58.1905 570.39 58.372C568.825 58.1905 569.021 56.9201 570.39 56.5572C573.323 56.7387 575.865 58.7349 579.385 57.4646C580.167 56.3757 577.429 57.2831 578.211 56.1942L579.189 55.8313L578.798 55.2868C580.949 55.1054 582.122 55.6498 583.686 55.8313C584.078 57.1016 580.362 57.8275 582.513 58.9164C583.882 58.009 586.033 57.4646 589.162 57.2831C589.357 57.8275 589.357 58.5534 590.922 58.5534C591.508 58.5534 591.899 58.1905 592.095 58.009C591.508 57.4645 590.139 57.2831 590.335 56.3757C592.095 55.6498 593.072 56.0128 595.81 56.0128C595.419 54.9239 598.156 55.2868 598.156 54.3794C594.246 53.6535 590.53 50.75 586.033 52.2018L585.055 52.3833C584.86 52.5647 584.86 52.9277 584.664 53.1091L585.446 53.4721C585.446 53.835 585.251 54.198 584.86 54.3794C581.535 54.5609 579.58 54.198 579.385 52.7462C580.558 52.0203 582.709 53.2906 584.273 52.3833C581.34 52.2018 578.016 50.5685 573.518 50.2055C572.15 50.7499 568.043 51.2944 566.283 50.7499C567.652 49.4796 570.39 48.7537 572.932 48.0278C572.736 49.2981 575.083 48.7537 575.865 48.3908C576.647 47.1204 573.909 47.8463 574.692 46.576C576.452 46.213 577.234 46.7575 580.167 46.576L579.776 47.1204L580.753 47.4834C582.122 48.7537 586.033 48.0278 588.575 48.0278C589.357 48.0278 590.335 48.5722 590.922 48.5722C594.637 48.7537 597.961 48.2093 601.09 48.2093C602.849 48.2093 605.392 49.2981 606.565 48.2093C606.76 47.4834 604.218 48.0278 604.805 46.939L605.196 46.576L604.805 46.213C608.129 46.213 610.475 44.2168 612.626 45.6686C612.626 45.1242 612.822 44.7612 613.213 44.3983C618.101 44.3983 617.71 46.9389 619.861 48.3908C620.839 48.0278 622.794 48.2093 623.577 47.8463C622.403 47.8463 622.208 47.4834 622.403 46.939C625.728 45.3057 631.594 46.0315 634.527 47.3019C634.527 46.7575 636.482 47.1204 636.287 46.3945C634.527 46.0315 634.527 44.5798 630.811 45.1242C631.203 43.8539 629.834 43.4909 627.878 43.4909L628.27 42.9465L627.292 42.765C627.292 42.5835 627.292 42.402 627.292 42.2206L628.27 41.8576L627.878 41.3132C633.745 42.0391 638.633 39.4984 640.002 37.8651C637.264 37.8651 635.896 38.591 634.527 39.4984C630.225 39.6799 626.705 38.954 624.359 39.8613C623.772 39.1354 621.426 39.3169 621.426 38.2281C622.794 38.0466 624.75 38.0466 624.945 37.3207C621.621 36.5948 617.906 36.0504 614.777 35.143C613.409 34.9615 613.409 35.6874 611.844 35.5059C610.671 34.0541 614.191 33.5097 615.364 34.2356C622.795 34.2356 631.789 33.1467 638.829 34.5985C639.611 34.0541 641.175 34.0541 641.762 33.6912C643.522 33.8726 644.304 34.5986 647.237 34.2356C647.824 33.3282 648.41 32.4208 649.584 31.6949C657.014 32.6023 669.333 35.143 676.763 32.2394C677.154 33.1468 675.003 34.2356 676.763 34.78C687.909 32.7838 697.1 36.0504 705.703 36.0504C707.268 37.5022 708.245 37.1392 711.765 37.3207C711.569 38.4095 710.396 39.1354 710.005 40.0428C712.352 39.4984 710.201 41.3132 711.765 41.3132C717.24 41.4947 719.391 44.3983 725.062 44.7612C729.168 44.9427 733.47 42.9464 738.945 43.4909C741.683 43.8538 743.638 44.5798 746.767 43.8538L747.158 44.3983L748.135 44.2168C748.918 44.5798 748.722 45.3057 748.722 46.0316C747.94 46.3945 746.962 46.576 746.376 46.939C747.353 47.4834 747.158 48.5722 748.135 49.1166L747.744 49.4796C749.309 49.2981 751.264 50.024 750.482 50.9314L751.655 50.7499C751.655 51.4758 752.437 52.9277 755.371 52.0203C756.153 52.5647 756.153 53.2906 757.13 53.6536C760.455 54.0165 762.214 52.3833 764.952 53.2906C765.148 52.9277 765.734 52.7462 765.538 52.0203C770.818 53.4721 773.36 51.2944 778.249 50.7499C778.444 52.0203 780.791 52.7462 777.662 53.2906C780.595 53.1092 780.986 54.198 783.724 54.198C783.919 53.2906 782.355 53.2906 782.551 52.3833C785.093 52.0203 788.612 50.5685 791.545 51.4759C790.959 51.4759 789.981 52.9277 790.959 52.7462C795.652 52.9277 797.021 51.1129 801.127 52.3833C800.54 52.3833 800.345 52.9277 801.127 52.9277L802.105 53.1091C802.3 52.7462 802.495 52.5647 802.887 52.3833C803.473 52.3833 804.451 52.2018 805.233 52.2018L804.842 51.6573C809.926 51.4758 819.117 51.8388 822.832 53.2906C823.809 53.2906 823.223 52.5647 824.592 52.7462C826.156 52.7462 825.374 54.0165 826.938 54.0165C827.916 52.9277 830.262 52.5647 829.871 50.9314C827.134 51.2944 825.96 50.5685 824.396 49.6611C827.525 48.7537 834.369 48.3907 837.693 50.024C839.453 49.6611 840.626 48.7537 843.168 49.4796C843.559 50.5685 841.017 50.024 840.821 50.7499C846.492 53.1091 853.336 52.7462 858.224 54.7424C865.264 54.9239 870.543 52.9277 877.583 52.2018C877.583 51.6573 879.147 52.0203 878.756 51.2944C876.214 49.8426 872.89 48.0278 867.219 49.1166C865.85 48.5722 861.158 47.3019 859.984 48.5722C861.744 49.4796 860.571 50.387 859.984 51.6573L859.007 51.4759L858.615 52.0203C856.856 52.2018 856.66 53.1091 854.314 52.9277C853.923 51.4759 848.839 49.8425 851.381 48.9352C847.665 49.4796 847.861 47.8463 845.319 47.6649C838.866 47.8463 835.542 46.0315 829.089 47.1204C828.893 46.0315 826.938 45.8501 825.569 45.3056C826.547 44.2168 825.765 42.2206 828.502 42.2206C828.698 44.2168 831.044 44.9427 834.564 45.3056C838.084 44.2168 839.453 45.1242 843.559 44.0353C847.079 44.9427 849.425 44.9427 851.967 46.576C855.487 45.6686 858.615 43.4909 863.504 44.9427L863.895 45.4871C864.091 45.3056 864.091 45.1242 864.286 44.9427C867.219 43.8539 870.934 44.2168 874.259 44.2168L864.873 45.3056C865.851 48.0278 873.477 46.0316 875.628 44.9427C876.41 45.3057 875.823 46.3945 877.387 46.576C883.254 44.0353 893.813 44.9427 901.439 46.0316C901.439 45.1242 901.439 44.2168 901.439 43.3094C904.958 42.765 904.958 43.6724 907.5 44.2168C907.109 44.5798 905.154 44.2168 905.154 44.7612C905.35 45.1242 905.936 45.3057 905.741 46.0316C906.523 45.6686 908.674 45.6686 909.456 46.0316C911.02 46.7575 908.478 46.576 908.869 47.6649C912.976 49.1167 919.428 46.576 914.931 44.9427C913.953 45.8501 911.411 44.9427 910.629 44.5797C911.411 43.1279 912.389 42.402 912.389 41.1317C914.931 41.4947 918.255 40.4058 920.797 40.7687C920.211 41.8576 918.646 42.5835 917.277 43.3094C918.646 43.4909 917.277 44.9427 919.037 44.9427C925.881 43.8539 930.965 46.3945 935.854 44.3983C933.312 43.8538 930.77 44.3983 927.446 43.8538C928.814 42.5835 925.099 42.5835 926.272 40.4058C929.988 40.5873 933.507 39.4984 936.44 40.4058C936.636 40.9502 935.658 40.9502 935.267 41.3132C940.156 41.3132 945.044 40.9502 949.737 41.6761C951.301 41.4946 952.475 40.0428 954.039 40.7687C955.603 41.1317 955.212 42.5835 956.972 42.9465C960.687 43.3094 961.078 42.0391 962.447 41.1317C976.917 42.0391 991.778 39.8613 1005.07 40.7687V52.0203V59.2793V111H505.862H501.364H498.627H495.889H491.001H489.241H481.224H477.508H476.922H442.116H441.92H426.668H414.544H406.136H30.8954H30.6998H2.3465C3.51974 110.637 4.49749 110.456 6.06181 110.637C4.10641 109.73 2.15094 109.73 0 109.911V100.837C4.10634 101.382 8.2127 99.2041 12.1235 101.2C12.7101 100.656 13.4923 100.293 13.8834 99.5671C10.3637 99.7486 9.19044 98.6597 6.06181 97.9338C3.12871 98.1152 1.9554 97.3893 0 97.0264V93.7598C1.9554 93.7598 3.9108 93.9413 4.8885 93.3969C4.8885 93.0339 4.8885 92.4895 4.8885 92.1266C3.71526 92.671 1.75986 91.7636 0 91.4007Z" fill="white"/>
<path d="M746.767 43.4907C748.331 43.1278 751.46 42.9463 752.242 43.8537C751.264 44.2166 750.286 44.7611 747.94 44.3981L748.331 43.8537L747.353 44.0352C747.549 43.6722 746.962 43.6722 746.767 43.4907Z" fill="white"/>
<path d="M513.684 48.3908L514.661 48.0279L514.27 47.4835C517.008 47.1205 519.55 47.6649 522.092 48.0279C522.874 48.0279 523.265 47.4835 523.265 48.3908L522.287 48.7538L522.678 49.2982C519.55 49.6612 515.443 48.9353 513.684 48.3908Z" fill="white"/>
<path d="M487.09 58.0088C488.459 57.1014 491.587 56.9199 493.738 56.3755C494.325 56.7384 494.325 57.4644 495.498 57.6458L495.107 58.1903L496.085 58.5532C493.347 59.8236 488.85 59.4606 487.09 58.0088Z" fill="white"/>
<path d="M564.327 67.6274L563.35 67.4459C563.741 67.8089 563.936 68.1718 563.741 68.5348H564.327C566.869 68.1718 567.651 68.3533 569.802 68.8977C569.998 70.531 567.847 71.2569 565.501 71.6199C563.154 71.0754 559.048 69.2607 557.092 70.3496C557.092 70.7125 558.07 70.7125 558.266 70.894C554.746 70.7125 550.248 71.9829 548.098 70.5311L548.489 69.9866L548.88 69.4422C549.857 68.1718 545.947 69.4422 547.706 69.4422L547.315 69.9866L547.706 70.5311C542.427 72.3458 540.276 69.9866 536.952 68.8977C534.801 68.1718 532.063 68.5348 532.063 67.2644C533.041 67.2644 534.214 67.446 534.41 66.9015C532.259 66.72 531.477 65.4497 528.935 66.3571C528.739 65.9941 528.152 65.8127 528.348 65.0868L528.739 64.5423L528.348 63.9979C532.259 63.8164 541.254 63.4534 543.405 65.2682C544.578 64.9052 547.706 65.4497 546.924 63.9979C547.902 65.0868 550.248 63.8164 551.813 63.9979C552.79 64.1794 554.55 65.8126 555.332 64.3608C555.137 65.0867 555.528 65.4497 556.506 65.6312C558.07 64.7238 560.612 64.3608 562.567 63.8164C563.154 64.5423 564.718 64.5423 566.869 64.3608L567.26 64.9053L568.238 65.0868C567.26 66.3571 563.545 65.8127 564.327 67.6274Z" fill="white"/>
<path d="M521.505 64.1791C522.678 64.1791 525.415 63.4532 526.393 64.1791L526.002 64.7235L526.393 65.2679C525.024 65.6308 521.309 65.2679 521.505 64.1791Z" fill="white"/>
<path d="M554.551 75.249C554.355 74.3416 555.333 73.9787 556.31 73.6157L556.701 74.1602L557.679 73.9787C558.266 73.9787 558.657 74.3416 558.852 74.5231L557.875 74.7046L558.266 75.249C556.897 75.4305 556.115 75.612 554.551 75.249Z" fill="white"/>
<path d="M543.209 75.6123C543.405 76.5197 542.427 76.8826 542.036 77.4271L541.058 77.2456L540.667 77.79C539.103 77.6086 538.321 76.8827 536.365 76.8827C535.779 75.9753 536.17 75.9752 536.952 75.2493L537.93 75.0679L537.539 74.5234C539.885 74.7049 540.081 75.7938 543.209 75.6123Z" fill="white"/>
<path d="M532.26 76.5196C532.26 75.9752 532.26 75.2493 532.26 74.7049C533.824 74.7049 533.433 74.1604 534.606 74.7049L534.215 75.2493L534.606 75.7937C534.802 76.3382 533.433 76.3381 532.26 76.5196Z" fill="white"/>
<path d="M523.852 74.7049L525.025 74.8864L525.611 74.3419C526.589 74.1604 527.567 75.4308 526.198 75.6123L525.611 75.0679L525.025 75.6123C523.852 75.7937 522.287 74.7049 523.852 74.7049Z" fill="white"/>
<path d="M521.504 73.4346C523.069 72.1643 526.588 73.0717 527.566 73.9791C526.979 73.9791 526.393 73.9791 525.806 73.9791L524.828 73.6161L523.851 73.9791C522.873 73.9791 520.918 74.342 521.504 73.4346Z" fill="white"/>
<path d="M481.028 56.7388L480.637 57.2832L481.615 57.4647C482.984 57.4647 481.615 58.5535 481.028 58.735L480.051 58.5535L480.442 59.0979C480.051 59.0979 479.269 59.098 479.269 58.735L480.051 58.0091L479.855 57.1017C480.051 56.7387 480.442 56.7388 481.028 56.7388Z" fill="white"/>
<path d="M477.508 54.561C481.81 53.4722 486.307 54.7425 489.045 56.1943C486.112 56.1943 484.156 56.5573 481.81 56.7388L482.201 56.1943L481.223 56.0129C480.636 55.1055 477.508 55.6499 477.508 54.561Z" fill="white"/>
<path d="M303.283 38.2276C303.674 39.8609 301.132 40.2239 299.763 40.9498C298.981 40.2239 296.634 40.4054 296.243 39.3165L297.221 38.9535L296.83 38.4091C299.372 38.5906 300.35 37.8647 303.283 38.2276Z" fill="white"/>
<path d="M125.536 29.88C123.776 30.2429 121.43 30.2429 121.234 28.9726L121.625 28.6097L121.234 28.2467C122.799 27.7022 125.732 28.4281 125.536 29.88Z" fill="white"/>
<path d="M202.58 31.1503C201.602 30.9688 200.038 30.9688 199.646 30.6059C200.82 30.4244 203.948 30.7873 202.58 31.1503Z" fill="white"/>
<path d="M177.941 39.4985C177.55 39.8615 180.288 40.2244 178.528 40.4059C178.528 40.043 175.986 39.68 177.941 39.4985Z" fill="white"/>
<path d="M822.831 48.7536C814.423 49.661 814.814 45.487 809.535 45.1241C809.535 44.5797 809.535 43.8537 809.535 43.3093C806.797 43.3093 805.233 42.9464 804.06 43.3093C805.624 45.487 797.802 44.7611 795.651 44.5796C796.825 45.6685 794.869 45.487 794.478 46.3944C791.545 46.5759 790.567 45.85 787.83 46.0315C787.634 45.487 788.025 44.9426 787.243 44.7611C784.897 46.0314 778.053 45.1241 777.075 43.8537C778.835 42.2204 782.55 42.4019 785.483 42.5834C785.874 43.4907 784.31 43.1278 784.31 43.8537C785.679 44.0352 786.852 44.2167 787.83 44.3981C787.634 43.4907 789.394 43.4908 789.59 42.7649C791.741 42.7649 791.74 43.6722 793.891 43.6722C794.674 42.9463 796.825 42.9463 797.411 42.039C796.629 40.7686 794.087 40.4057 792.523 39.4983C790.176 40.0427 788.807 41.1316 787.634 42.2205C782.55 40.4057 771.991 43.4907 768.862 41.676C766.907 42.9463 763.387 42.9464 759.867 42.2205L760.259 41.676C758.499 41.8575 756.152 42.039 754.783 41.1316L755.175 41.676C753.415 42.2204 749.113 42.039 748.526 41.1316C749.7 40.2242 752.828 39.1353 755.175 39.8612L754.783 40.4057L756.543 39.8612L755.566 40.0427C755.175 39.4983 753.806 39.3168 753.219 38.7724C748.917 39.4983 742.66 39.1354 738.163 40.4057C736.403 40.0427 734.447 39.6798 733.861 38.5909C734.056 37.865 736.794 38.4094 736.207 37.3206C735.816 37.3206 735.425 37.3206 735.621 36.9576L736.012 36.4132L735.034 36.2317C737.967 34.5984 747.939 36.7761 750.09 34.5984C746.766 33.5096 741.878 32.7837 739.336 32.0578C739.727 32.0578 740.509 32.0577 740.509 31.6948C738.749 31.5133 737.576 30.9689 736.207 30.4245C735.816 29.3356 738.749 30.0615 737.967 28.7912C736.012 29.5171 734.838 28.9727 733.079 29.3356L732.688 28.7912L732.296 28.2468C732.492 27.8838 730.536 27.1579 730.536 27.8838C730.536 28.0653 730.536 28.2468 730.536 28.4282L729.559 28.6097L729.95 29.1541C728.777 29.1541 723.302 28.7912 721.542 28.2468L721.933 27.7023C720.564 27.8838 719.391 27.5208 718.413 27.1579C718.413 26.7949 718.413 26.6135 718.609 26.2505C719.977 25.8875 721.346 26.069 722.715 26.2505L722.324 25.7061C727.212 24.0728 734.252 24.7987 737.38 24.0728L737.772 24.6172C737.967 24.2543 738.163 24.0728 738.358 23.7098C738.749 23.3469 739.14 22.9839 739.531 22.8025L738.554 22.621C737.967 21.3506 735.621 20.9877 734.252 20.0803C740.9 20.2618 748.331 19.8989 749.895 16.0879C753.024 15.9064 756.348 18.2656 758.303 16.6323C755.175 14.636 750.482 13.3657 749.308 10.4621C750.091 10.4621 750.09 10.0991 751.068 10.0991C756.543 12.8213 761.432 15.9064 766.711 18.81C766.907 19.7174 765.147 19.5359 764.952 20.4433C766.516 23.5284 773.946 21.7136 776.488 24.4357C782.746 24.6172 785.288 26.795 786.657 29.3356C785.483 30.0615 783.723 30.606 782.941 31.5134C786.07 31.8763 787.439 33.1466 789.59 34.054C791.936 33.3281 793.892 34.2355 796.238 33.691C795.847 34.5984 797.802 34.2355 797.411 35.3243C797.607 36.0502 795.065 35.5058 795.651 36.5947C796.629 36.5947 797.607 36.5947 797.998 36.9576C798.389 38.0465 796.629 38.2279 796.824 39.1353C798.975 38.5909 801.126 40.2242 802.3 40.9501C805.819 41.313 806.601 40.0427 807.775 39.1353C806.993 39.1353 806.406 38.9539 806.015 38.7724L806.406 38.2279L805.428 37.865C805.428 37.1391 807.579 37.6835 808.361 37.5021C808.752 36.5947 806.21 36.5947 807.775 35.8688C810.121 35.5058 809.535 36.5947 811.49 36.4132C810.121 35.1429 806.993 34.9614 806.015 33.3281H805.428C805.428 34.2355 803.277 34.2355 802.495 33.8725C802.3 33.1466 803.277 32.7837 804.842 32.9651L804.451 33.5096C805.233 33.1466 806.015 33.3281 806.601 33.3281V33.8725C810.903 32.4207 817.552 34.5984 821.071 35.5058C818.529 36.0502 816.378 36.9576 814.423 38.0465C816.965 39.3168 822.44 39.1353 824.005 40.7686C822.245 42.9463 825.569 45.487 822.831 48.7536Z" fill="white"/>
<path d="M738.358 23.8916L738.749 24.436L737.771 24.6175C737.967 24.2545 737.771 23.8916 738.358 23.8916Z" fill="white"/>
<path d="M731.71 32.6023C731.319 32.4209 730.341 31.1505 731.71 30.9691L732.687 30.7876L733.078 30.2432C734.447 31.1505 734.252 32.6023 731.71 32.6023Z" fill="white"/>
<path d="M500.386 34.417C505.861 35.6873 510.554 37.3206 517.789 37.5021L517.398 38.0465L517.789 38.591C515.443 39.6798 509.772 38.591 505.666 38.591C503.515 38.591 501.755 39.6798 500.777 38.591C501.56 39.4983 499.8 39.3168 499.604 39.8613C493.542 40.2242 484.743 41.1316 479.659 39.4984C465.385 42.039 455.608 37.6836 441.138 36.9577C440.356 36.0503 440.942 35.3244 442.311 34.78C440.16 34.9614 438.987 34.417 437.422 34.2355C436.836 32.7837 440.747 33.5096 440.355 32.0578C438.987 32.2393 438.009 32.0578 437.422 31.6948L437.814 31.1504L437.422 30.606C441.529 29.6986 446.808 29.1542 451.892 28.7913C449.741 28.0654 450.132 26.9765 450.719 25.3432C456.976 22.8025 466.167 25.7061 471.837 27.1579C474.184 26.432 477.899 26.4321 480.832 25.8876C489.24 27.158 492.956 30.7875 500.191 32.6022L499.8 33.1467L500.777 33.5096C500.973 34.2355 500.386 34.2355 500.386 34.417Z" fill="white"/>
<path d="M428.037 30.4244C429.601 29.517 434.294 29.6985 435.859 30.4244L435.468 30.9688L435.859 31.5133C433.512 32.2392 428.624 32.0577 428.037 30.4244Z" fill="white"/>
<path d="M663.466 1.02536L657.209 0.480957C659.164 0.480957 661.315 0.480935 663.466 1.02536Z" fill="white"/>
<path d="M84.0822 15.3623L80.1714 17.3586C80.758 16.2697 82.5179 15.9067 84.0822 15.3623Z" fill="white"/>
<path d="M85.8421 14.4546C85.451 14.8175 84.8645 14.999 84.2778 15.362L85.8421 14.4546Z" fill="white"/>
<path d="M245.794 18.2656C245.794 18.6286 245.794 19.173 245.598 19.536L245.794 18.2656Z" fill="white"/>
<path d="M245.598 19.5361L245.402 21.7138C245.207 20.9879 245.402 20.262 245.598 19.5361Z" fill="white"/>
<path d="M93.2728 17.3582C92.6862 16.9952 92.2951 16.4508 92.0996 16.0879L93.2728 17.3582Z" fill="white"/>
<path d="M595.223 19.5358C594.05 19.5358 592.876 19.1729 591.703 19.1729L595.223 19.5358Z" fill="white"/>
<path d="M700.815 25.5247C700.033 25.5247 699.251 25.5247 698.469 25.3433L700.815 25.5247Z" fill="white"/>
<path d="M139.615 30.2432L137.073 31.1505C137.66 30.7876 138.442 30.4246 139.615 30.2432Z" fill="white"/>
<path d="M406.527 29.5173C405.941 29.5173 405.354 29.3358 404.768 29.1543L406.527 29.5173Z" fill="white"/>
<path d="M316.775 38.9536L315.406 39.3166C315.797 39.1351 316.188 38.9536 316.775 38.9536Z" fill="white"/>
<path d="M313.255 39.6797L315.406 39.1353C314.819 39.4982 314.233 39.8612 313.255 39.6797Z" fill="white"/>
<path d="M412.589 32.2394L406.527 31.8765C408.678 31.8765 410.634 31.8765 412.589 32.2394Z" fill="white"/>
<path d="M704.53 33.5099L699.055 32.0581C701.401 32.0581 702.574 32.9655 704.53 33.5099Z" fill="white"/>
<path d="M596.397 37.6834L594.637 37.502C595.223 37.6834 595.81 37.6834 596.397 37.6834Z" fill="white"/>
<path d="M325.378 44.035L322.836 43.3092C324.009 43.1277 324.596 43.8536 325.378 44.035Z" fill="white"/>
<path d="M483.179 45.6684C484.156 45.4869 485.134 46.0313 486.112 46.2128L483.179 45.6684Z" fill="white"/>
<path d="M506.057 47.1204C505.275 47.1204 504.493 46.939 503.711 46.939L506.057 47.1204Z" fill="white"/>
<path d="M468.708 49.8423L465.775 50.7497C466.558 50.2052 467.731 50.0238 468.708 49.8423Z" fill="white"/>
<path d="M383.649 52.2017L385.996 52.3831C385.018 52.5646 384.432 52.3831 383.649 52.2017Z" fill="white"/>
<path d="M746.571 44.7609L748.331 43.8535C747.745 44.2165 747.353 44.5794 746.571 44.7609Z" fill="white"/>
<path d="M627.878 42.402L625.336 42.0391C626.118 42.2205 627.096 42.2206 627.878 42.402Z" fill="white"/>
<path d="M621.816 44.2168L627.878 43.6724C625.923 44.0353 623.967 44.5798 621.816 44.2168Z" fill="white"/>
<path d="M602.85 46.7573L605 47.1202C604.023 47.3017 603.632 46.9388 602.85 46.7573Z" fill="white"/>
<path d="M578.993 55.8311L575.474 56.0126C576.647 55.8311 577.82 55.4681 578.993 55.8311Z" fill="white"/>
<path d="M556.115 49.6611L559.635 50.0241C558.462 50.2055 557.288 50.0241 556.115 49.6611Z" fill="white"/>
<path d="M508.403 44.5796L516.812 45.487C514.074 45.3055 510.359 46.0314 508.403 44.5796Z" fill="white"/>
<path d="M522.287 48.7539H524.634C524.047 48.7539 523.069 48.9354 522.287 48.7539Z" fill="white"/>
<path d="M498.04 58.1905H495.106C496.28 58.009 497.062 58.1905 498.04 58.1905Z" fill="white"/>
<path d="M498.04 58.1904H501.755C500.582 58.5534 499.213 58.3719 498.04 58.1904Z" fill="white"/>
<path d="M518.767 60.9126C518.181 61.2756 517.79 61.6385 517.398 61.82L518.767 60.9126Z" fill="white"/>
<path d="M565.306 63.0903C565.11 63.2718 564.915 63.4533 564.523 63.6347L565.306 63.0903Z" fill="white"/>
<path d="M570.585 64.3608L567.065 65.2682C568.043 64.7238 569.021 64.3608 570.585 64.3608Z" fill="white"/>
<path d="M528.348 64.905L526.002 64.542C526.784 64.7235 527.566 64.7235 528.348 64.905Z" fill="white"/>
<path d="M560.221 75.4306C559.244 75.2492 558.853 75.0677 557.875 74.8862L560.221 75.4306Z" fill="white"/>
<path d="M556.702 74.1606L556.898 73.0718C557.093 73.4347 557.093 73.7977 556.702 74.1606Z" fill="white"/>
<path d="M537.93 75.0675H534.215C535.584 75.0675 536.952 74.886 537.93 75.0675Z" fill="white"/>
<path d="M525.416 76.7011C525.416 76.3382 525.612 75.7938 525.807 75.0679L525.416 76.7011Z" fill="white"/>
<path d="M525.025 74.8861C524.829 74.5231 524.829 74.1602 524.829 73.6157L525.025 74.8861Z" fill="white"/>
<path d="M482.006 64.3605L480.441 63.4531C481.224 63.6346 481.615 63.9976 482.006 64.3605Z" fill="white"/>
<path d="M468.709 57.4644L480.05 58.0088C476.139 57.8273 472.424 57.6458 468.709 57.4644Z" fill="white"/>
<path d="M481.614 59.4609C481.223 59.2795 480.832 58.9165 480.05 58.3721L484.547 59.4609C483.765 59.6424 482.592 59.6424 481.614 59.4609Z" fill="white"/>
<path d="M480.833 57.1017C481.224 56.7388 481.615 56.5573 482.006 56.1943L480.833 57.1017Z" fill="white"/>
<path d="M117.911 28.0654L121.626 28.6099C120.257 28.7914 119.084 28.4284 117.911 28.0654Z" fill="white"/>
<path d="M98.5524 25.3432L95.0327 23.71C96.597 24.0729 97.3792 24.7988 98.5524 25.3432Z" fill="white"/>
<path d="M80.562 32.9652L77.6289 32.7837C78.6066 32.7837 79.5843 32.7837 80.562 32.9652Z" fill="white"/>
<path d="M719 26.9764L708.05 26.2505C711.765 26.2505 715.481 26.432 719 26.9764Z" fill="white"/>
<path d="M732.101 29.6987L732.687 30.969C732.101 30.4246 731.905 30.0617 732.101 29.6987Z" fill="white"/>
<path d="M732.102 36.2314L736.403 36.5944C735.035 36.7759 733.275 36.5944 732.102 36.2314Z" fill="white"/>
<path d="M438.009 31.1501C437.227 30.9686 436.445 30.9686 435.663 30.7871L438.009 31.1501Z" fill="white"/>
<path d="M517.594 38.0464C518.571 38.2279 519.549 38.2279 520.331 38.5908L517.594 38.0464Z" fill="white"/>
<path d="M499.995 33.5096C500.777 33.3281 501.559 33.5096 502.342 33.3281L499.995 33.5096Z" fill="white"/>
</svg>
