<svg width="1160" height="101" viewBox="0 0 1160 101" fill="none" xmlns="http://www.w3.org/2000/svg">
<path d="M1234.39 9.77938V25.5335C1229.83 25.5335 1224.78 25.5335 1219.5 24.34C1220.22 24.8174 1220.46 25.5335 1220.22 26.4883C1218.54 26.727 1217.34 27.2044 1214.94 26.9657C1213.98 25.0561 1212.06 24.8174 1214.22 22.9078C1213.02 22.4304 1208.93 21.2369 1208.21 22.9078C1208.93 22.9078 1209.65 22.9078 1210.38 22.9078C1210.86 24.5787 1207.25 24.8174 1208.93 25.7722C1212.06 27.4431 1203.65 28.8753 1203.65 31.501C1206.29 33.1719 1212.06 33.1719 1213.98 35.0814L1212.78 35.5589L1213.26 36.2749C1207.49 35.7975 1201.01 33.6493 1195.49 35.5589C1190.44 34.3654 1186.36 32.6945 1179.16 32.6945C1179.88 33.888 1177.95 33.8879 1177.71 34.8427C1175.07 34.3653 1169.55 34.6041 1168.83 36.5137C1170.99 36.5137 1173.87 36.2749 1174.11 37.2297L1172.91 37.7071L1173.39 38.4232C1172.19 39.378 1166.91 38.1846 1165.95 39.1394C1166.91 40.5715 1168.35 41.5263 1170.27 42.4811C1176.03 42.0037 1178.19 44.8681 1183.48 45.8229C1183.96 47.9712 1184.92 49.8808 1190.2 49.4034C1190.2 50.3582 1190.2 51.313 1189.48 51.7904C1186.12 51.0743 1184.92 51.5517 1182.04 51.0743C1183.96 54.1774 1194.52 52.9839 1197.65 51.0743C1200.29 51.313 1205.57 50.3582 1205.09 52.2678C1203.17 52.2678 1201.49 52.5064 1200.53 52.9838C1202.93 53.9386 1204.13 55.6096 1207.97 55.8483C1207.97 54.8935 1207.97 53.9387 1208.69 53.4613C1210.13 53.4613 1211.58 53.4613 1213.02 53.4613C1212.54 51.313 1217.34 51.7904 1216.62 50.5969C1217.34 51.7904 1219.98 52.029 1221.9 52.7451C1221.18 54.1773 1217.58 54.1774 1219.74 56.087C1216.38 57.2805 1212.3 58.4739 1207.25 57.7578C1204.37 58.9513 1203.41 60.1448 1198.37 59.4287L1198.85 58.7126L1197.65 58.9513C1195.01 57.7578 1192.36 59.4287 1188.76 60.1448C1185.4 60.8609 1183.72 59.6674 1184.44 61.8157L1183.24 62.2931L1183.72 63.0092C1180.36 63.0092 1176.27 62.7705 1175.55 64.2027L1174.35 64.4414L1174.83 65.1575C1164.51 65.1575 1154.9 68.9767 1146.01 67.3058L1147.21 66.8284L1142.89 66.5897C1139.77 66.5897 1136.89 66.8284 1134.01 66.1123L1134.49 66.8284C1132.32 67.0671 1130.16 67.5445 1129.92 68.9767C1132.81 69.4541 1134.49 69.4541 1137.37 68.9767C1136.65 70.1702 1139.77 69.454 1139.53 70.6475L1138.33 70.8862C1139.05 70.8862 1139.53 70.8863 1140.25 71.125C1140.73 71.3637 1140.97 71.8411 1141.21 72.3184L1141.69 71.6024C1144.57 72.3185 1144.57 74.7055 1147.69 75.1829C1151.06 75.1829 1155.86 73.7507 1157.3 73.9894C1153.94 76.3764 1162.34 78.2859 1166.91 78.7633C1167.15 79.7181 1166.91 80.4342 1166.19 80.9116C1167.39 81.389 1169.31 81.389 1169.79 82.1051L1169.31 82.8212L1170.51 83.0599C1156.1 84.0147 1140.97 85.6856 1129.68 81.8664C1126.8 83.0599 1124.16 82.5825 1121.52 82.3438C1121.76 83.5373 1119.84 83.5373 1120.08 84.7308C1123.68 87.1178 1131.6 84.9695 1136.41 87.1178L1135.21 87.5951L1135.69 88.3113C1126.08 88.3113 1118.64 88.3112 1108.31 88.7886C1107.59 89.266 1107.59 90.2208 1106.87 90.9369C1110.23 92.6078 1113.35 94.2787 1114.31 97.3818L1113.11 97.6205L1112.63 98.3366C1109.03 97.6205 1106.15 94.2788 1101.59 95.4722C1103.27 97.3818 1107.83 97.8592 1108.31 100.246C1103.03 99.0527 1096.06 99.0527 1093.42 96.6657C1092.7 97.3818 1091.02 97.1431 1089.82 97.3818C1089.82 95.9496 1087.66 95.7109 1088.38 94.04L1089.58 93.8013L1089.1 93.0853C1091.5 92.6079 1090.06 94.5174 1091.98 94.2788C1094.62 93.5627 1097.02 93.3239 1100.14 93.8013C1097.74 91.1756 1094.14 89.5048 1087.66 89.2661C1086.46 87.1178 1089.58 87.1177 1089.1 85.2082C1086.7 84.9695 1084.29 84.9695 1083.81 83.5373C1087.42 81.8664 1093.66 85.2082 1098.7 83.0599C1100.14 83.5373 1101.59 83.776 1103.27 84.2534C1104.23 83.5373 1107.11 84.0147 1106.87 82.5825C1106.39 81.1503 1104.23 80.6729 1102.55 79.7181C1091.26 80.1955 1084.29 76.8537 1075.89 78.5246C1076.13 79.4794 1075.89 80.1955 1075.17 80.6729C1068.92 80.1955 1065.56 78.0472 1059.56 77.3311C1058.84 78.7633 1056.92 79.2407 1055 80.1955C1053.31 79.9568 1052.11 79.4794 1049.71 79.7181C1048.75 77.0924 1044.91 76.1377 1038.67 76.3764C1038.67 76.8538 1038.42 77.3311 1037.94 77.5698C1029.06 77.8085 1027.86 73.7506 1020.17 73.0345C1020.17 72.0797 1019.69 71.3636 1018.73 70.8862C1013.21 70.8862 1001.92 72.7959 996.638 70.1702C987.272 71.8411 971.182 69.4541 961.816 70.8862C959.414 71.3636 956.292 70.8863 952.21 71.3637C952.45 72.5572 950.288 72.5571 950.048 73.5119C951.729 74.228 951.729 75.899 951.489 77.5698C949.088 77.5698 945.245 76.1376 943.324 77.0924C944.285 79.7181 949.328 78.7633 952.93 78.7633C957.733 78.7633 962.536 80.6729 965.418 79.9568C964.938 81.389 962.296 81.389 963.977 82.8212C962.296 82.8212 961.095 82.8212 961.095 83.5373C961.816 84.4921 963.737 84.7308 963.257 86.4017C953.891 89.0273 944.285 84.4921 935.159 84.0147C933.718 84.0147 934.198 84.7308 932.277 84.7308C930.596 84.7308 929.155 83.776 928.674 84.0147C926.993 84.2534 926.273 85.9243 924.112 85.2082C922.19 83.5373 913.305 83.5373 909.943 85.2082C912.104 88.0725 921.47 84.492 923.151 87.3564C928.434 85.4468 931.797 88.3113 935.639 89.5048L935.159 90.2208L934.678 90.9369C923.391 95.4722 913.545 87.1177 905.139 88.7886C906.34 89.7434 908.982 90.2208 912.584 89.9821C915.226 92.3691 916.667 95.7109 922.19 96.427C922.19 97.1431 922.19 97.8592 922.19 98.5753C915.946 96.9044 911.624 95.2335 902.978 95.7109C900.577 95.2335 901.777 92.6078 898.655 92.3691C897.935 92.3691 897.455 92.8466 897.214 93.0853C896.974 94.9948 900.336 94.9948 899.376 97.1431C891.931 96.6657 884.246 92.6078 880.164 89.0274C884.486 89.5047 886.408 88.3113 886.888 86.6404C885.447 86.4017 883.766 86.4017 884.006 85.4469C884.726 84.7308 885.447 84.0147 887.608 84.2534C891.451 87.5952 900.336 84.2533 906.1 84.9694C905.62 81.1503 890.49 83.5373 890.49 80.9116C886.408 80.9116 876.561 81.1503 871.278 79.7181L871.758 79.002L871.278 78.2859C871.758 77.5698 875.36 78.2859 875.841 77.5698C877.041 76.8538 875.12 76.1376 875.841 74.7054C877.041 73.9893 878.723 73.5119 880.164 73.0345C877.762 73.0345 876.561 72.3185 873.439 72.5572C873.199 69.2154 878.723 68.9767 880.884 66.8284C879.923 66.8284 878.723 66.8284 878.723 66.351L879.923 65.8736L879.443 65.1575C880.644 64.2027 876.801 62.7705 876.561 61.577C873.679 61.3383 873.439 62.5318 871.278 62.7705C868.636 61.0996 863.113 61.0996 860.951 59.19C861.912 58.4739 862.872 57.9965 863.833 57.5191C861.672 56.803 856.388 57.0417 854.227 57.5191L854.707 56.803L853.506 56.5643C854.227 55.6095 851.105 55.1322 851.345 55.8483C852.306 55.8483 852.065 56.5643 852.786 56.5643L852.306 57.2805L852.786 57.9965C851.585 59.19 849.424 57.7578 847.503 57.9965C846.542 56.5643 849.904 57.7578 848.944 56.3256C847.262 55.8482 846.542 56.3256 844.381 55.6095C842.219 56.803 839.577 57.9966 836.215 58.474C827.57 55.8483 816.283 53.2225 805.956 52.7451C807.637 50.8355 806.917 49.4034 804.515 47.9712C804.035 48.4486 805.476 50.1195 803.795 50.1195C803.554 49.1647 798.991 49.6421 797.07 48.4486C796.35 49.6421 792.507 48.926 791.066 49.6421C790.826 48.926 792.267 48.6873 791.066 48.4486C785.543 47.9712 782.181 49.642 777.858 49.1646C778.819 46.7777 768.732 49.1647 765.37 47.4938C765.37 46.539 766.571 46.3003 766.09 45.1068C771.854 45.1068 775.697 42.0037 780.98 42.9585L780.5 43.6746L780.98 44.3907C781.7 45.1068 783.382 45.3455 785.543 45.1068C785.543 44.6294 784.342 44.6294 784.102 44.3907L784.822 43.6746L784.102 42.9585C784.822 42.0037 788.665 43.6746 790.106 42.4811V42.9585H790.826C791.787 44.6294 793.708 42.4811 790.826 42.4811L791.307 41.7651L790.106 42.0037C787.704 38.6619 774.496 39.378 773.775 36.2749C771.134 36.991 769.693 38.1846 767.771 39.1394C766.09 36.7524 761.287 38.1846 760.327 35.7976C760.567 36.7524 758.886 36.7524 757.445 36.9911C752.642 36.0363 749.04 34.3653 743.276 33.6492C743.996 31.2623 737.032 30.3075 735.831 32.4557C737.992 32.217 737.992 33.1719 740.154 32.9332C740.154 35.3202 736.311 35.3201 733.429 36.2749C730.788 35.7975 731.748 33.4106 727.426 33.888C727.666 34.604 726.705 34.8428 726.705 35.5589L725.504 35.3202L726.225 36.9911L726.705 36.2749C729.347 37.7071 733.429 38.4232 734.15 41.0489C737.992 40.3328 736.311 42.4811 738.473 42.7198C740.394 42.0037 742.315 41.2876 745.197 41.0489C746.158 41.2876 745.197 42.7198 746.638 42.7198C748.319 42.0037 752.162 42.4811 754.803 42.2424C756.244 42.9585 756.004 44.6294 757.685 45.1068C759.846 45.1068 762.248 45.1068 762.008 46.3003C762.008 47.7325 757.445 46.539 757.685 47.9712C759.366 48.4486 761.768 48.6873 762.008 50.1195C758.406 49.8808 757.205 50.8356 753.843 50.5969C754.083 52.029 752.882 52.5064 750.961 52.7451C748.799 51.0742 745.197 47.9712 740.634 48.2099C738.953 48.2099 737.752 49.6421 735.351 49.8808C737.512 50.3582 738.233 51.5517 742.075 51.0743C740.154 52.9839 744.236 53.4613 744.236 55.6095C741.355 56.3256 738.953 55.8482 736.792 56.3256C741.355 57.9965 750.961 56.803 750 52.9838C757.445 53.2225 762.248 52.7451 764.169 56.3256C762.728 57.5191 758.646 56.803 756.004 56.3256C754.803 56.803 755.284 58.474 755.284 59.6674C750.961 60.8609 747.599 58.9513 743.516 58.9513C742.075 59.6674 742.315 61.0996 739.914 61.0996C731.268 58.7126 727.186 63.4866 720.701 64.6801C714.938 63.964 710.375 66.5897 703.651 66.8284C698.607 65.1575 688.761 66.1123 685.159 63.4866C683.958 63.4866 682.757 63.4866 681.556 63.4866C678.194 62.5318 673.391 59.4287 669.068 57.7578C665.946 56.5643 664.265 56.8031 663.785 57.2805C662.344 56.3257 659.942 55.6095 657.061 55.1321L658.261 54.6548L657.781 53.9386C663.064 52.9838 654.659 50.8356 652.498 49.8808C652.498 49.4034 652.498 48.6873 652.498 48.2099L653.698 48.4486C652.738 47.9712 652.017 47.2551 652.258 46.3003L651.777 47.0164C648.655 45.8229 646.013 46.7777 642.891 45.8229L641.691 45.5842L642.171 46.3003C641.691 46.3003 641.211 46.3003 640.73 46.3003C639.289 49.1647 630.163 47.7325 629.683 45.5842C626.561 47.7325 621.038 45.8229 614.794 46.3003C614.313 44.8681 610.951 42.9585 608.79 44.6294C609.991 44.6294 611.431 44.6294 610.951 45.3455C606.868 46.0616 604.467 42.7198 599.904 42.4811C595.581 43.6746 589.097 42.7198 588.857 40.3328C595.341 38.4233 601.825 41.5263 608.069 39.8554C604.467 38.1845 600.384 38.4233 597.743 35.7976C598.703 35.0815 600.865 35.3202 600.624 34.1267C600.384 32.4558 595.821 33.4106 596.302 31.7397C597.262 31.0236 598.943 30.7849 598.463 29.3527C597.743 29.3527 597.503 29.114 597.022 28.8753C594.38 29.114 591.979 29.5914 588.857 29.5914L588.377 28.8753L587.896 29.5914C585.975 26.727 576.369 27.2044 569.404 27.2044L568.204 26.9657L567.723 27.6818C566.763 27.4431 566.282 27.2044 564.841 27.2044C565.802 27.6818 564.601 29.114 564.121 30.0688C557.877 31.0236 550.432 27.4431 546.35 30.5462L545.149 30.7849L545.629 31.501C544.909 31.501 544.188 31.501 543.468 31.501C543.468 31.9784 543.468 32.6945 543.468 33.1719C541.307 32.9332 541.547 33.6492 539.866 33.6492C539.625 31.7397 536.744 31.2623 533.862 30.7849C533.862 31.501 533.381 31.7397 532.421 31.9784C532.421 31.2623 531.94 31.0236 530.98 30.7849C530.259 31.2623 530.259 32.217 528.818 32.4557C525.456 31.0236 521.134 34.6041 517.771 33.1719C517.291 32.2171 521.134 31.501 518.492 30.7849C516.331 30.3075 517.291 31.7397 517.051 32.4557C513.449 32.217 508.886 32.217 506.724 33.6492C509.606 33.1718 512.248 33.888 514.89 35.3202C518.012 35.3202 519.212 34.1267 522.334 34.1267C524.256 35.3202 527.378 35.5589 529.779 36.5137C529.779 37.2297 529.779 38.1845 529.779 38.9006C533.381 39.1393 533.862 41.0489 537.944 41.0489C539.145 43.6746 534.822 43.4359 533.381 44.6294L532.901 43.9133L532.421 44.6294C529.779 43.4359 525.456 45.3455 523.535 44.152C521.614 43.9133 523.055 45.8229 520.653 45.3455C524.736 46.7777 528.578 45.5842 532.421 44.8681L532.901 45.5842L534.102 45.8229C535.062 47.9712 535.543 47.0164 538.425 46.539L539.385 47.2551L540.826 47.0164C541.066 47.2551 540.826 47.7325 541.547 47.7325C543.708 48.926 542.507 46.539 545.149 47.0164C547.07 47.2551 548.271 47.9712 551.153 47.7325C550.913 47.2551 549.952 47.0164 549.712 46.539C553.794 46.539 554.275 46.539 557.157 46.539C554.515 46.539 560.279 47.0164 560.759 47.0164C560.999 47.0164 561.239 46.7777 561.479 46.7777C561.72 46.7777 561.96 47.0164 562.44 47.0164C563.881 47.2551 566.282 46.7777 568.444 47.0164C570.605 48.6873 575.889 48.6873 578.771 49.8808C580.211 49.4034 581.412 48.926 583.093 48.6873C584.294 49.1647 584.534 50.1194 585.975 50.3581C585.975 49.4034 586.936 48.6873 588.857 48.6873C590.538 49.4034 592.94 49.6421 596.302 49.4034L596.782 50.1195L597.983 49.8808C601.105 51.0743 607.589 50.3582 609.03 52.2678C612.632 52.0291 615.274 52.5064 617.916 52.7451L617.435 53.4613L618.636 53.9386C615.754 54.6547 614.073 55.8482 610.471 55.1321C609.99 53.9386 610.231 54.1774 608.309 53.4613C605.908 53.4613 603.987 54.1773 600.865 53.9386C600.865 54.8934 602.305 55.1322 600.865 56.087C600.384 56.087 599.424 56.0869 599.424 56.5643C595.101 55.6095 591.499 55.8483 591.258 53.7C587.176 55.3709 585.495 58.2352 580.211 58.9513C584.054 59.4287 585.495 59.6674 588.377 59.6674C585.735 57.5192 598.943 57.2804 598.703 60.3835C596.062 60.6222 591.499 61.577 589.097 60.8609C588.857 62.0544 584.054 61.0996 583.093 62.0544C584.774 63.4866 586.936 64.4414 589.818 65.3962L589.337 66.1123L591.018 66.351C589.818 69.6928 597.743 68.0219 599.904 69.6927L599.424 70.4089L599.904 71.125C596.302 71.8411 592.219 73.2732 588.136 71.841C578.29 75.6602 561.72 73.2733 556.196 68.9767C552.113 69.2154 551.393 67.7832 548.031 67.7832L548.511 67.067L548.031 66.351C547.791 65.3962 551.393 66.5897 550.192 65.1575L551.393 64.6801L550.913 63.964C556.676 64.4414 558.357 63.2479 563.401 64.6801C563.401 63.2479 559.798 62.0544 562.68 61.3383C561.479 61.3383 560.279 61.3383 559.078 61.3383L558.117 60.6222C557.637 61.3383 556.196 62.0544 554.995 61.8157L555.235 62.5318C551.393 62.7705 553.314 60.1448 550.913 59.6674C547.791 59.6674 545.629 59.19 543.468 58.9513C543.708 56.5643 547.31 58.2352 551.633 57.7578C551.633 56.3256 554.035 56.3257 553.794 54.8935C553.074 54.4161 553.074 53.4613 551.633 53.2226C545.869 53.9387 539.145 53.4613 533.862 53.2226C535.783 53.4613 535.543 55.1321 533.862 55.6095C530.259 55.3708 527.137 52.7452 522.815 54.416C521.854 55.8482 525.216 54.6548 524.255 56.087L523.055 56.5643L523.535 57.2805C520.893 57.5192 519.453 56.803 517.531 56.5643C517.051 54.8934 521.614 53.9387 518.972 52.5065C517.291 53.7 514.649 54.4161 510.807 54.6548C510.567 53.9387 510.567 52.9838 508.645 52.9838C507.925 52.9838 507.445 53.4613 507.205 53.7C507.925 54.4161 509.606 54.6548 509.366 55.8483C507.205 56.8031 506.004 56.3256 502.642 56.3256C503.122 57.7578 499.76 57.2805 499.76 58.474C504.563 59.4287 509.126 63.2479 514.649 61.3383L515.85 61.0996C516.09 60.8609 516.09 60.3835 516.331 60.1448L515.37 59.6674C515.37 59.1901 515.61 58.7127 516.09 58.474C520.173 58.2353 522.574 58.7126 522.815 60.6222C521.374 61.577 518.732 59.9061 516.811 61.0996C520.413 61.3383 524.496 63.4866 530.019 63.964C531.7 63.2479 536.744 62.5318 538.905 63.2479C537.224 64.9188 533.862 65.8736 530.74 66.8284C530.98 65.1575 528.098 65.8736 527.137 66.351C526.177 68.0219 529.539 67.0671 528.578 68.738C526.417 69.2154 525.456 68.4993 521.854 68.738L522.334 68.0219L521.134 67.5445C519.453 65.8736 514.649 66.8284 511.527 66.8284C510.567 66.8284 509.366 66.1123 508.645 66.1123C504.083 65.8736 500 66.5897 496.158 66.5897C493.996 66.5897 490.874 65.1575 489.433 66.5897C489.193 67.5445 492.315 66.8284 491.595 68.2605L491.114 68.738L491.595 69.2154C487.512 69.2154 484.63 71.8411 481.988 69.9315C481.988 70.6476 481.748 71.125 481.268 71.6024C475.264 71.6024 475.745 68.2606 473.103 66.351C471.902 66.8284 469.5 66.5897 468.54 67.067C469.981 67.067 470.221 67.5444 469.981 68.2605C465.898 70.4088 458.694 69.4541 455.091 67.7832C455.091 68.4993 452.69 68.0219 452.93 68.9767C455.091 69.4541 455.091 71.3636 459.654 70.6475C459.174 72.3184 460.855 72.7959 463.257 72.7959L462.776 73.5119L463.977 73.7507C463.977 73.9894 463.977 74.228 463.977 74.4667L462.776 74.9441L463.257 75.6602C456.052 74.7054 450.048 78.0472 448.367 80.1955C451.729 80.1955 453.41 79.2407 455.091 78.0472C460.375 77.8085 464.697 78.7633 467.579 77.5698C468.3 78.5246 471.182 78.2859 471.182 79.7181C469.5 79.9568 467.099 79.9568 466.859 80.9116C470.942 81.8664 475.504 82.5825 479.347 83.776C481.028 84.0147 481.028 83.0599 482.949 83.2986C484.39 85.2082 480.067 85.9242 478.626 84.9694C469.5 84.9694 458.453 86.4017 449.808 84.4921C448.847 85.2082 446.926 85.2082 446.205 85.6856C444.044 85.4469 443.084 84.492 439.481 84.9694C438.761 86.1629 438.04 87.3565 436.599 88.3113C427.473 87.1178 412.344 83.776 403.218 87.5951C402.738 86.4017 405.38 84.9695 403.218 84.2534C389.529 86.8791 378.242 82.5825 367.675 82.5825C365.754 80.6729 364.553 81.1503 360.231 80.9116C360.471 79.4794 361.912 78.5246 362.392 77.3311C359.51 78.0472 362.152 75.6602 360.231 75.6602C353.506 75.4215 350.865 71.6024 343.9 71.125C338.857 70.8863 333.573 73.512 326.849 72.7959C323.487 72.3185 321.085 71.3637 317.243 72.3184L316.763 71.6024L315.562 71.841C314.601 71.3636 314.841 70.4088 314.841 69.454C315.802 68.9766 317.003 68.7379 317.723 68.2605C316.522 67.5444 316.763 66.1123 315.562 65.3962L316.042 64.9188C314.121 65.1575 311.719 64.2027 312.68 63.0092L311.239 63.2479C311.239 62.2931 310.279 60.3835 306.676 61.577C305.716 60.8609 305.716 59.9061 304.515 59.4287C300.432 58.9513 298.271 61.0996 294.909 59.9061C294.668 60.3835 293.948 60.6222 294.188 61.577C287.704 59.6674 284.582 62.5318 278.578 63.2479C278.338 61.577 275.456 60.6222 279.299 59.9061C275.696 60.1448 275.216 58.7126 271.854 58.7126C271.614 59.9061 273.535 59.9061 273.295 61.0996C270.173 61.577 265.85 63.4866 262.248 62.2931C262.968 62.2931 264.169 60.3835 262.968 60.6222C257.205 60.3835 255.523 62.7705 250.48 61.0996C251.201 61.0996 251.441 60.3835 250.48 60.3835L249.279 60.1448C249.039 60.6222 248.799 60.8609 248.319 61.0996C247.599 61.0996 246.398 61.3383 245.437 61.3383L245.917 62.0544C239.673 62.2931 228.386 61.8157 223.823 59.9061C222.622 59.9061 223.343 60.8609 221.662 60.6222C219.74 60.6222 220.701 58.9513 218.78 58.9513C217.579 60.3835 214.697 60.8609 215.178 63.0092C218.54 62.5318 219.981 63.4866 221.902 64.6801C218.06 65.8736 209.654 66.351 205.572 64.2027C203.41 64.6801 201.969 65.8736 198.847 64.9188C198.367 63.4866 201.489 64.2027 201.729 63.2479C194.765 60.1448 186.359 60.6222 180.355 57.9965C171.71 57.7578 165.226 60.3835 156.58 61.3383C156.58 62.0544 154.659 61.577 155.139 62.5318C158.261 64.4414 162.344 66.8284 169.308 65.3962C170.989 66.1123 176.753 67.7832 178.194 66.1123C176.032 64.9188 177.473 63.7253 178.194 62.0544L179.395 62.2931L179.875 61.577C182.036 61.3383 182.277 60.1448 185.158 60.3835C185.639 62.2931 191.883 64.4414 188.761 65.6349C193.324 64.9188 193.083 67.0671 196.205 67.3058C204.13 67.0671 208.213 69.4541 216.138 68.0219C216.378 69.4541 218.78 69.6928 220.461 70.4089C219.26 71.8411 220.221 74.4667 216.859 74.4667C216.618 71.841 213.737 70.8863 209.414 70.4089C205.091 71.8411 203.41 70.6475 198.367 72.0797C194.044 70.8862 191.162 70.8863 188.04 68.738C183.717 69.9315 179.875 72.7958 173.871 70.8862L173.391 70.1702C173.151 70.4089 173.151 70.6475 172.911 70.8862C169.308 72.3184 164.745 71.841 160.663 71.841L172.19 70.4089C170.989 66.8284 161.623 69.4541 158.982 70.8862C158.021 70.4088 158.741 68.9767 156.82 68.738C149.615 72.0797 136.647 70.8862 127.281 69.454C127.281 70.6475 127.281 71.841 127.281 73.0345C122.959 73.7506 122.959 72.5571 119.837 71.841C120.317 71.3636 122.718 71.8411 122.718 71.125C122.478 70.6476 121.758 70.4088 121.998 69.454C121.037 69.9314 118.396 69.9314 117.435 69.454C115.514 68.4992 118.636 68.738 118.155 67.3058C113.112 65.3962 105.187 68.738 110.711 70.8862C111.911 69.6927 115.033 70.8863 115.994 71.3637C115.033 73.2733 113.833 74.228 113.833 75.8989C110.711 75.4215 106.628 76.8538 103.506 76.3764C104.227 74.9442 106.148 73.9893 107.829 73.0345C106.148 72.7958 107.829 70.8862 105.668 70.8862C97.2622 72.3184 91.0182 68.9767 85.0144 71.6024C88.1364 72.3185 91.2582 71.6024 95.3408 72.3184C93.6598 73.9893 98.2227 73.9893 96.7817 76.8537C92.2188 76.615 87.8961 78.0472 84.2938 76.8537C84.0537 76.1376 85.2544 76.1376 85.7347 75.6602C79.7308 75.6602 73.7269 76.1377 67.9633 75.1829C66.042 75.4216 64.6012 77.3311 62.6799 76.3764C60.7588 75.899 61.239 73.9893 59.0776 73.5119C54.5148 73.0345 54.0343 74.7054 52.3533 75.8989C34.5819 74.7054 16.3303 77.5698 -0.00012207 76.3764V61.577V52.0291V-16H613.112H618.636H621.998H625.36H631.364H633.526H643.372H647.935H648.655H691.403H691.643H710.375H725.264H735.591H1196.45H1196.69H1231.51C1230.07 -15.5226 1228.87 -15.2839 1226.95 -15.5226C1229.35 -14.3291 1231.75 -14.3291 1234.39 -14.5678V-2.6329C1229.35 -3.349 1224.3 -0.48465 1219.5 -3.11034C1218.78 -2.39423 1217.82 -1.91685 1217.34 -0.962059C1221.66 -1.20076 1223.1 0.231491 1226.95 1.18629C1230.55 0.947586 1231.99 1.90238 1234.39 2.37978V6.67632C1231.99 6.67632 1229.59 6.43765 1228.39 7.15376C1228.39 7.63115 1228.39 8.3472 1228.39 8.8246C1229.83 8.10851 1232.23 9.30198 1234.39 9.77938Z" fill="white"/>
</svg>
